<svg xmlns="http://www.w3.org/2000/svg" xml:space="preserve" viewBox="0 0 2555.404 1110.779"><g style="display:inline"><path d="M13833.9 10400.7c4.1 50.8-28.3 93.2-57.8 130.8-96.1 117.3-191.3 235.4-287.1 352.8 51.2 42.2 102.6 84.2 154.7 125.8 103.4-125.8 205.5-252.8 308.6-379 51.6-58 82.2-131.8 87.2-209.3 7.8-241.2-259.8-447.92-490.9-372.8-74.1 23.5-131.4 80.4-178.2 139.3-96.6 121.9-198.5 239.7-292.6 363.5 51.7 40.1 102.3 81.7 152.4 123.9 113.1-130.4 214.3-270.8 330.5-398.2 94.8-96.9 269.4-1.6 273.2 123.2m493.3 881.6v-.2c164.2 34.4 328.7 67.1 493.3 100.5 12.7-61.7 24.9-123.6 37.2-185.7-127-25.1-253.2-53-380.4-75.5 6.8-43.6 14.7-87.4 23.7-130.8 117.6 21.3 233.9 48.8 351.8 69.1 11.1-60.3 23.6-120.6 36.6-180.8-115.7-27-232.7-48.5-349.2-71.8 9.4-38.1 6.4-85.2 37.8-113.9 27.7-16.5 60.3 0 90.2 2.2 93.2 20.1 186.5 39.2 280.1 57.1 12.8-62.3 26.3-124.6 35.8-187.7-132.7-18.5-261.3-61.9-395.5-69.3-108.7-6.6-205.9 78-225 182.8-36.2 168.6-69.3 337.8-103.7 506.6-11.8 40.4 11.3 82.6 51.4 94.6 5.3 1.4 10.5 2.4 15.9 2.8m1425.6 30.4c129.2-20.1 253.6-62.7 380.8-92.3-14.3-62.4-31.8-124.3-52.7-185-95.2 28.5-191.9 51-287.5 76.7-27.5 4.5-64.7 21.3-84.8-6.8-20.1-28.1-24.1-66.1-34.6-99.4 114.2-31 228.7-60.5 343.6-88.9-11.2-61.4-29.1-120.5-44.4-182.2-115.3 28.5-230 59.3-345 88.8-27.3-103.7-54.6-207.1-80.3-311.2-62.9 20.1-180.9 16-175.5 108.7 41.2 175.6 88.9 350 135.1 524.4l1.2 1c27.9 108.9 132.4 180.2 244.1 166.2m-297.6-1141.3c-600.3 117.9-1263.2-102.7-1653-579.08-37.8 38.98-73.1 80.37-105.7 123.77 277.5 330.51 680.4 545.11 1104.5 616.01 638.8 112.8 1336.8-116.9 1757.7-616.62-33.3-42.39-67.3-84.18-102.2-125.17-256.8 303.4-610.5 508.79-1001.3 581.09m1073-139.5c12 37.6 23.9 75 35.8 112.6-48.5 38.8-98.7 75.1-148.3 112.1 40.2 28.7 79.9 56.9 119.5 84.8 22.5-16.5 45.8-31.6 70.1-45.2 24.6 84.8 50.3 169.2 74.8 253.7-149.5-96.4-299.2-192.4-447.9-290.1-64.1 32.4-126.2 68.5-185.8 108.3 233.2 148.1 464.1 299.8 696.4 449.5 76.9 70.7 222.8-32.6 185-128.6-78.5-270.1-157.1-540.1-235.5-810.16-54.6 51.23-111.3 100.46-164.1 153.06" style="fill:#3451ab;fill-opacity:1;fill-rule:nonzero;stroke:none" transform="matrix(.13333 0 0 -.13333 -224.45 1759.219)"/><path d="M17336.1 10673.5c-529 532.1-1258.4 853.8-2006.4 897.6-881.7 60.2-1785.7-267.1-2408.8-897-35.5 42.6-70.5 85.6-105.5 128.6 526.9 532.9 1250.2 858.4 1994 927.3 955.5 94.6 1952.9-241.3 2631.4-927.1-35.4-42.6-70.3-85.8-104.7-129.4m-4411.2-3927.7c16.5-126.2-17.6-264.7-114.7-352.1-117.5-106.7-292.9-124.5-442-84.7-126.2 35.9-226.3 132.6-266.1 257.7-47.4 153.5-32.3 334.8 68.2 464.6l.6-.6c142.8 182.6 437.8 200.9 616.8 62.5 58.7-48.7 99.7-115.2 116.7-189.3h-106c-76 215.2-400.7 247.7-536.3 74.3-94.9-122.9-100.5-303.8-30.6-439.8 100.5-191.7 401.9-209 535.3-45.8 40.2 47.2 52.9 108.9 59.1 168.4h-385.4v84.8h484.4m265.1-349.4h506.3v-95.1c-203.3-2.2-406.9-3-610.4 0l.2 1c2.6 290.4-2.2 580.7 2.6 870.8 200.9-1.4 403.3-2.4 604.8 0 2.4-32.3 2.8-64.9 1.2-97.2-168.4 2.2-336.8 0-504.9 1 0-97.1 1.6-194.3-1.6-291.6 157.3-8.4 315.2-1.4 472.9-3.8 0-29.7-1-60.2-1.2-90-156.7 1-313.4 0-469.9 0v-295.1m1067.5 260c101.9-119 205.6-236.5 306.2-356.5-49.6 8-118.9-23.1-152.9 26.9-117.3 138.5-236.3 275.5-353 414.3 90.2 4.7 184.4-13.4 271.8 14.9 106.7 36.6 132 190.5 56.7 268.3-39 35.1-90.4 53.6-142.9 51.4-93 2.2-185.8 0-278.9 1.4-3.8-259.2 1.9-518.4-2.8-777.8h-101.4v871.4l.8.2h383.3c72.2 0 147.7-15.6 205-62.3 122.8-95 118.1-311.8-11.1-399.6-52.4-37.4-117.5-47.2-180.8-52.6m1198.3 513.7c40.2 1.2 79.4 1.6 119.6 1.6v-872h-102.3c-2.4 235.7 4 471.6-3.4 707.1-112.7-160.8-205.6-334.8-318.1-495.5l-43.6 2.8c-109.9 164.2-210.3 334.5-320.1 498.7-1.4-237.5 0-475 0-712.5l-103-1.6v872h117.7c108.9-174.2 218.4-347.4 328.5-520 111.6 171 217.6 345.6 324.7 519.4m703.3 1.6c117.1-290.7 233.7-581.5 349.8-871.8H16394c-29 71.9-55.7 144.7-83.8 216.6h-278.1c-5 28.5-10.1 56.9-14.7 85h261.2c-57.4 154.5-120.5 307.2-174.2 462.1-105.9-251.3-195.7-509.5-294.7-763.5-37.6 0-75.2 0-112.6-1.6 111.2 291.5 229.1 580.5 341.6 871.2l-1.8 1c40.2 0 81.4 1 122.2 1m1075.3-2h102.5v-871.4c-37.8 0-75.1 0-112.5 1.8-159.7 236.7-322.7 471.4-483.8 707.3-1.2-236.3 0-472.8 0-709.1h-104.5v871.4c37.4-3.2 80.2 9.5 114.9-7 163.8-230.1 318.7-466.6 483.4-696.2v703.2m829.5 1.2h115.9c-104.1-155.7-218.2-305.6-316.2-464.9-3.5-135.4 0-271.1-1.7-406.7h-102.2v383.8c4.2 36.9-26.7 62.1-44 90.6-91.7 132-187.5 260.6-275.3 396h118.6c82.3-127.8 168.7-252.9 251.3-380.5 85.8 126.4 168.8 254.3 253.6 381.7M9618.87 9263.4h1147.33v-341.58h-749.3c0-98.26-1.8-196.71 0-294.96h683.2c-1.2-107.1 2.4-214.39-2-321.46-228.1 0-456.2 3-683.2-1 2-96.1 1.6-192.1 0-288.2 250.4-3.4 500.7 0 750.9-1.4v-340.3c-383 2.2-765.97-3.9-1148.73 3 3.61 528.8 0 1057.66 1.6 1587.31l.2-1.41m2356.53-1582.5c-147.1-35.6-300.2-36.6-447.7-2.8-144.7 33.5-282.9 115.9-362.9 243.7-60.9 99.1-92.2 213.4-90.2 329.7v1013.31c130.2 1.6 260.6-1.41 390.6 2 7-317.87 1.4-635.93 2.8-954.01-6.2-100.5 24.5-215.6 119.2-267.2 114.5-60.3 277.2-54.5 369.9 43.4 49.6 54.8 64.9 131.6 63.1 203.5v972.31c131.2 0 262.6 1 394 0V8291.9c3-123-18.1-249.7-81.8-356.6-75.3-131.4-212-218.8-357-254.4m1731 517.8c90.4-176 196.5-344 283.3-522.4h-419.8c-100.2 260.4-200.3 520.8-300 781.37 84.6 4.43 172.4-11.25 255.2 12.86 123.6 46.21 176.8 203.74 136.8 323.29-25.5 73.15-103.6 113.13-177.4 116.34-122.3 4.43-244.7 0-367.1 1.61V7676.3h-394.8v1588.51l-.4.2c253.8 2.81 507.3 0 761.1 1.4 158.8 0 326.9-35.16 448.5-143.46 292.3-259 164.6-837.85-225.4-924.25m1807.5 71.5c60.3 175.62 48.4 388.2-67.3 539.1-150.5 194.1-482.2 195.5-635.3 3.22-119.4-152.31-131.9-368.91-68.4-546.92 48.5-132 163-228.9 301.4-254.6-17.8-117.1-36.5-234.5-54-351.8-202.5 25.1-401.9 119.3-529.3 281.3-146.6 180.8-194.5 425.36-169.1 653 20 195.71 107.1 387.99 257.9 517.19h-.6c153.8 134.22 360.5 195.5 562.6 196.71 202.2 1.21 405.1-47.42 564.5-171.39 155.9-119.15 253.9-303.81 283.1-496.3 33.1-222.62 0-463.11-128.4-652.01-128.4-188.9-341.6-304.2-564.6-326.7-17.5 116.5-35.8 233.1-53.9 349.6 139.3 27.3 253.8 126 301.4 259.6m1331.6 375.74c38.5 89.62 47 200.93-7.7 285.52-76.3 116.14-251.5 138.04-365.3 66.71-83.2-53.24-112.5-156.92-109.7-250.96-88.6 10.05-184.8 0-268.4 22.5-4.8 133.82 40 273.47 135.8 368.71 100.5 102.07 248 144.87 388.6 146.07 151.5 2.82 311.2-41.99 419.9-152.3 108.7-110.31 149.3-273.06 121.6-421.95-25.1-143.87-106.1-270.85-198.1-381.76-123.8-150.28-278.5-270.08-416.7-406.28 211.7-1.2 423.7 0 635.7 0 1-83 1.4-166 0-249.1h-1079c0 70.3 0 140.6-1 210.5 165.6 148.3 337.6 289.2 499.5 442.07 96.1 94.03 190.3 195.7 244.8 320.27m1283.3-255.38c-7.9-137.46-22.1-286.96-105.7-400.66-83.6-113.7-272.1-116.5-359.1-2s-98.6 264.6-107.1 403.06c-4 158.54-2.2 323.1 56.3 472.79 29.7 76.35 88.8 147.49 172.4 165.37v.8c104.5 26.92 214-21.51 264.2-116.94 83.6-160.75 81.2-347.01 79-522.42zm291.3 182.04c-12.2 203.15-58.8 420.95-206.7 570.84-138.5 140.45-357.3 169.38-541.3 118.75-127-36.97-233.9-123.57-296.4-240.1-99.3-179.23-117.5-390.21-114.7-591.14 5.8-202.15 37.7-417.35 162.5-583.85 197.7-266.1 660.7-260.5 847.9 15.2 141.9 205.6 159 469.19 148.7 710.3m1157.8-649c2-82.6 0-165.2 1.8-247.7-360.5-2-720.9-3.5-1081.2 0 1.2 70.7 0 141.6 0 212.1 169.8 147.1 341.6 291.8 505.5 445.7 98.7 97.85 197.1 204.15 246.2 336.56 35.7 97.25 31.5 221.02-45.2 296.77-105.1 100.47-301.4 98.86-392.5-21.1-43.8-56.26-53.4-129.6-55.2-198.92-89.6 5.03-179 10.65-268.7 15.27-4.4 145.47 44.6 298.38 157.2 395.43l1.8.6c135.8 118.95 330.3 145.88 503.7 116.94 142.7-22.9 281.3-102.87 353-230.46 88.4-152.51 76.8-347.01-1.6-501.12-110.1-220.97-301.4-382.77-482.2-545.97-24.7-23.9-56.3-43.2-70.3-75.7 209.1 2.8 418.3 0 627.7 1.6m1271 376.7v-245.9h-216.6v-379.3h-277c-2 439 0 878.02-1.6 1317.05-139.3-207.96-273.5-419.15-411.9-627.7-13.3-19.89-24.4-41.4-33-63.75h291.4c-12.7-81.7-25.8-163.5-37.4-245.5-191.5-2-383 0-574.3 0 3.6 71.9-9 146.1 6.1 216.4 217.8 332.96 442 661.47 662 993.41l.8-.2c125.2 1.8 250.8 0 376.1 0V8300.3h215.4" style="fill:#3451ab;fill-opacity:1;fill-rule:nonzero;stroke:none" transform="matrix(.13333 0 0 -.13333 -224.45 1759.219)"/><path d="M6383.18 5180.3c-44.66-17.6-89.73-34.4-134.6-51-12.12 28.3-24.05 56.6-36.78 84.3l115 36.8 10.71-18.4c14.55-17.6 29.91-34.5 45.67-51.7" style="fill:#2e8a55;fill-opacity:1;fill-rule:nonzero;stroke:none" transform="matrix(.13333 0 0 -.13333 -224.45 1759.219)"/><path d="M3949.62 5183.7c-4.24-13.7-12.53-41.6-16.77-55.6-40.43 14.4-80.85 28.3-121.27 43.5 8.69 24.8 17.39 49.7 26.28 74.4 40.22-15 78.01-36 111.76-62.3" style="fill:#c6872a;fill-opacity:1;fill-rule:nonzero;stroke:none" transform="matrix(.13333 0 0 -.13333 -224.45 1759.219)"/><path d="m6326.8 5251-115-37.4c-25.87 54.6-56.39 106.7-85.9 159.1-7.88 13.5-15.56 26.9-23.04 40.4 38.2 14.6 75.59 30.7 112.58 48.7v1.4c17.58-33.1 36.58-65.7 55.17-98.6 15.56-27.9 30.11-56.6 43.25-85.9l12.94-27.7" style="fill:#449665;fill-opacity:1;fill-rule:nonzero;stroke:none" transform="matrix(.13333 0 0 -.13333 -224.45 1759.219)"/><path d="M5795.66 5179.7h-.2c-99.84 0-199.48 0-299.12 1h-.4c-14.55 80.8-27.49 162.9-47.7 242.5l.4.4.21.2 27.28 27.9.4.2h.21c61.03 0 121.66 5.7 181.69 17.2 38.6-99.7 84.48-196.5 137.23-289.4" style="fill:#92c2dc;fill-opacity:1;fill-rule:nonzero;stroke:none" transform="matrix(.13333 0 0 -.13333 -224.45 1759.219)"/><path d="M5881.76 4937.1a4310.083 4310.083 0 0 0-1588.36 0c.21 1.3.21 2.5.41 3.7 21.63 185.5 155.62 329.2 211.81 503.4l.6.4c.41.2.81.4 1.21.4.21.2.41.2.61.4 73.37 29.1 150.37-28.7 220.5 7.5l-.2-1-3.03-12.9c-32.14-134.2-51.34-271.1-57.8-408.9 85.89-12.7 172.39-20.8 259.09-24.4 186.75 1.4 374.3-7.5 559.64 19.8 7.68 1 15.36 2.2 23.04 3.4v.2c-1.42 50.7-6.07 101.3-13.55 151.6h.61c99.64 0 199.28 0 299.12-1 43.65-74.8 72.96-157.1 86.3-242.6" style="fill:#8cbbd9;fill-opacity:1;fill-rule:nonzero;stroke:none" transform="matrix(.13333 0 0 -.13333 -224.45 1759.219)"/><path d="M4076.54 5423.2c-42.03-80.8-92.15-155.8-126.92-239.5-33.75 26.3-71.54 47.3-111.76 62.3 31.12 52.9 61.23 106.5 90.13 160.4 10.92 20.2 21.63 40.5 32.75 60.7 39.81-11.4 78.62-25.9 115.8-43.9" style="fill:#bda73a;fill-opacity:1;fill-rule:nonzero;stroke:none" transform="matrix(.13333 0 0 -.13333 -224.45 1759.219)"/><path d="M5509.88 5029.1c-192.81-31.5-388.24-21.8-582.67-23.2-86.7 3.6-173.21 11.7-259.1 24.4 6.47 137.9 25.67 274.7 57.8 408.9l18.8 18.8c116.81 21.4 234.24 2.2 351.86 6.8 92.17-9.5 184.53 4.5 276.89-2.6 42.44-12.3 39.21 39 47.29 64.7 9.51-34.4 19-68.7 27.89-103.5 20.21-79.8 33.15-161.7 47.7-242.5 7.48-50.3 12.13-101.1 13.54-151.8" style="fill:#a9cddf;fill-opacity:1;fill-rule:nonzero;stroke:none" transform="matrix(.13333 0 0 -.13333 -224.45 1759.219)"/><path d="M6994.76 5516.2a2893.363 2893.363 0 0 0-611.58-335.3c-15.76 17.2-31.12 34.1-45.67 51.7 223.33 82.3 429.47 203.3 627.74 333.7l29.51-50.1" style="fill:#329d59;fill-opacity:1;fill-rule:nonzero;stroke:none" transform="matrix(.13333 0 0 -.13333 -224.45 1759.219)"/><path d="M6215.44 5463.2c-36.79-18-74.38-34.3-112.58-48.7-19 34.8-37.59 69.7-55.58 104.9 31.73 23 64.07 45.3 97.01 66.9l9.51 6.3c19.19-43.7 39-87.1 61.64-129.4" style="fill:#38985d;fill-opacity:1;fill-rule:nonzero;stroke:none" transform="matrix(.13333 0 0 -.13333 -224.45 1759.219)"/><path d="M4140.41 5543.5c-16.57-31.8-33.35-63.5-50.33-95.2l-13.54-25.1c-37.18 18-75.99 32.5-115.8 43.9l17.78 33.3 38.4 74.4c40.42-10.7 82.06-20.2 123.49-31.3" style="fill:#c0a423;fill-opacity:1;fill-rule:nonzero;stroke:none" transform="matrix(.13333 0 0 -.13333 -224.45 1759.219)"/><path d="M6965.25 5566.3c-198.27-130.4-404.21-251.4-627.74-333.7l-10.71 18.4-12.94 27.7c222.32 80.8 424.22 207 626.33 331.3 8.08-14.6 16.37-29.1 25.06-43.7" style="fill:#43b56b;fill-opacity:1;fill-rule:nonzero;stroke:none" transform="matrix(.13333 0 0 -.13333 -224.45 1759.219)"/><path d="M3837.86 5246c-8.89-24.7-17.59-49.6-26.28-74.4-224.54 86.7-436.75 202.7-630.97 345.2 12.13 28.7 24.65 57.2 36.98 85.7v-.6l3.84-4.5c29.11-38.6 65.28-70.9 106.92-95.6 163.7-96.8 328.01-196.2 509.51-255.8" style="fill:#f9b129;fill-opacity:1;fill-rule:nonzero;stroke:none" transform="matrix(.13333 0 0 -.13333 -224.45 1759.219)"/><path d="M6940.19 5609.5c-202.11-124.3-404.21-249.8-626.53-331.2-13.54 29.3-27.89 57.8-43.25 85.9l.2.4c217.27 91.1 425.23 202.9 620.87 334.1 15.16-27.7 30.12-55.4 45.68-83.5l3.03-5.7" style="fill:#59c478;fill-opacity:1;fill-rule:nonzero;stroke:none" transform="matrix(.13333 0 0 -.13333 -224.45 1759.219)"/><path d="M5420.75 5527.1c-8.08-25.7-4.65-77.2-47.29-64.9-92.36 7.1-184.72-6.9-276.89 2.6-117.62-4.6-235.05 14.6-351.86-6.8 17.99 96 43.25 190.6 75.58 282.7a566.465 566.465 0 0 1 208.98-17c109.54 11.2 219.9-24.8 328.43 3.1 23.24-65.7 43.85-132.6 63.05-199.7" style="fill:#bdddea;fill-opacity:1;fill-rule:nonzero;stroke:none" transform="matrix(.13333 0 0 -.13333 -224.45 1759.219)"/><path d="M3927.99 5406.4c-29.1-53.9-59.21-107.3-90.13-160.4-181.9 59.6-345.81 159-509.51 255.8-41.64 24.7-77.81 57-106.92 95.6 22.23 42.1 44.46 84.1 67.3 125.9 4.04 7.1 11.73 21.5 15.77 28.5 101.05-82.4 216.86-143.7 329.63-208.3 94.39-53.6 201.1-80.9 293.86-137.1" style="fill:#f9dc42;fill-opacity:1;fill-rule:nonzero;stroke:none" transform="matrix(.13333 0 0 -.13333 -224.45 1759.219)"/><path d="m3978.12 5500.4-17.79-33.3c-11.12-20.2-21.82-40.5-32.74-60.7-92.76 56.4-199.48 83.5-293.86 137.1-112.78 64.6-228.58 125.9-329.64 208.3 17.18 31.6 34.97 62.7 52.15 94.2 175.02-164.1 404.21-252.4 621.88-345.6" style="fill:#f9da2b;fill-opacity:1;fill-rule:nonzero;stroke:none" transform="matrix(.13333 0 0 -.13333 -224.45 1759.219)"/><path d="M6891.48 5700.1c-195.64-131.2-403.6-243.3-620.87-334.5-18.59 33-37.59 65.5-55.17 98.6-22.64 42.3-42.45 85.7-61.64 129.4 64.47 55.4 155.21 50.1 225.75 94.2v-1c129.34 79.4 265.16 147.1 392.08 231 22.64-40.5 45.07-80.9 67.51-121.3 17.38-32.1 34.76-64.3 52.34-96.4" style="fill:#47be6e;fill-opacity:1;fill-rule:nonzero;stroke:none" transform="matrix(.13333 0 0 -.13333 -224.45 1759.219)"/><path d="M4030.26 5601.3c-3.43-6.7-10.1-20.2-13.34-26.5l-38.4-74.4c-217.46 93.2-446.85 181.9-621.88 345.6l30.32 56.2 18.59 34.6c102.06-64.9 202.11-132.4 309.63-189.6 109.34-39.2 207.36-102.7 315.08-145.9" style="fill:#fad61b;fill-opacity:1;fill-rule:nonzero;stroke:none" transform="matrix(.13333 0 0 -.13333 -224.45 1759.219)"/><path d="M6125.9 5374.9c-67.91-6.7-135.21-17-202.1-30.5-114.19 204.5-192 427-252.84 652.6a796.925 796.925 0 0 0 151.38 20c63.26-170.6 138.44-336.7 224.94-496.8 17.99-35.1 36.38-70.1 55.58-104.9 7.48-13.5 15.16-26.9 23.04-40.4" style="fill:#9acae3;fill-opacity:1;fill-rule:nonzero;stroke:none" transform="matrix(.13333 0 0 -.13333 -224.45 1759.219)"/><path d="M5357.7 5725.6c-108.53-27.9-218.89 8-328.43-3.1-70.13-7.5-141.07-1.6-208.98 17 40.43 100 80.85 203.5 156.23 283v-.5c46.89 52.4 134.6 70.6 192.01 24.3 101.05-78.6 146.32-204.5 189.17-320.7" style="fill:#c7e2ec;fill-opacity:1;fill-rule:nonzero;stroke:none" transform="matrix(.13333 0 0 -.13333 -224.45 1759.219)"/><path d="M7650.8 6190.8a2731.48 2731.48 0 0 0-656.04-674l-29.51 50.1c-8.69 14.6-16.98 29.1-25.06 43.7l-3.03 5.6c113.58 64.3 204.53 160.5 304.37 242.5 121.26 128.6 244.35 259.4 338.73 409.9l28.3-31.1 42.24-46.7" style="fill:#abc7d3;fill-opacity:1;fill-rule:nonzero;stroke:none" transform="matrix(.13333 0 0 -.13333 -224.45 1759.219)"/><path d="M4517.95 6051.1c-47.5-204.7-116.82-403.6-207.16-593.3-73.57-3.3-147.14-5.9-220.71-9.5 16.78 31.5 33.55 63 49.93 94.6.2.2.2.4.4.6 75.99 154 159.86 313.2 215.25 479.2 50.52 151.1 77.8 307.6 54.16 470l114.39-42c26.47-132.2 24.25-268.4-6.26-399.6" style="fill:#9ccbe4;fill-opacity:1;fill-rule:nonzero;stroke:none" transform="matrix(.13333 0 0 -.13333 -224.45 1759.219)"/><path d="m3386.96 5902.2-30.32-56.2c-17.18-31.5-34.96-62.6-52.14-94.2-4.04-7-11.73-21.4-15.77-28.5-53.35 23.9-102.26 56.2-145.11 95.8-97.01 105.5-215.24 189.6-301.54 305-56.19 77.2-148.75 134.6-165.12 234.9l47.49 51.9c26.07 29.1 51.74 58.6 78.22 87.7 5.05-79.2 90.34-104.5 116.21-174.6 138.24-157 279.91-323.4 468.08-421.8" style="fill:#ee2f2e;fill-opacity:1;fill-rule:nonzero;stroke:none" transform="matrix(.13333 0 0 -.13333 -224.45 1759.219)"/><path d="M5658.63 5469.1h-.2c-60.03-11.5-120.66-17.2-181.69-17.2l-27.89-28.5v.4c-8.9 34.6-18.39 68.9-27.89 103.1-1.82 5.8-3.64 11.9-5.46 17.8-16.57 55.5-33.55 110.9-52.14 165.5-1.82 5.7-3.64 11.1-5.66 16.6-42.65 116.2-87.72 242.3-188.97 320.5-57.4 46.3-145.12 28.1-192.01-24.2-75.38-78.9-116.61-181.7-156.02-282.6-.2-.4-.2-.6-.41-1-32.13-91.8-57.19-185.9-75.18-281.5 0-.2-.2-.6-.2-.8l-18.8-18.8.41 1.4 2.83 12.5c-.4-.2-.61-.4-1.01-.4-70.94-35.6-147.94 22.6-220.7-7.7-.21 0-.41-.2-.61-.2.2.4.2.6.4 1 70.74 175.7 125.72 357.6 164.52 542.9 40.42 213 24.86 432.5-15.16 644.3v.6l-.81.6c1.01-.4 2.22-1 3.23-1.6 107.93-50.1 213.84-115.8 334.29-128.9 46.49-5.3 80.85-45.7 127.13-51 34.76 7.7 68.11 23.7 104.48 23.7 95.6 25.4 164.32 99 254.46 135.2 0-.2.2-.6.2-.8.4-1.6 1.01-3.1 1.41-4.7 6.67-22.6 13.34-45.6 19.61-68.7.4-1.4.81-2.6 1.21-4-28.49-177.9-28.49-359 0-536.8 36.79-179.9 89.13-356.1 156.63-526.7" style="fill:#a2cfe5;fill-opacity:1;fill-rule:nonzero;stroke:none" transform="matrix(.13333 0 0 -.13333 -224.45 1759.219)"/><path d="M5821.53 6016.2c-51.33-1.8-102.47-8.7-152.59-20.2-63.87 202.1-41.83 421.4 24.25 620.4l.81.9c20.21 11.5 40.43 22.8 60.64 34.1l43.04-10.7c-62.24-204.9-53.76-424.8 23.85-624.5" style="fill:#a2cfe4;fill-opacity:1;fill-rule:nonzero;stroke:none" transform="matrix(.13333 0 0 -.13333 -224.45 1759.219)"/><path d="M8070.37 6998.8c-106.11-285.7-246.98-557.2-419.57-808.4l-41.84 47.1c54.77 110.7 132.18 208.2 187.15 318.7 84.68 153.6 152.59 315.1 226.36 474.2l47.9-31.6" style="fill:#fab32b;fill-opacity:1;fill-rule:nonzero;stroke:none" transform="matrix(.13333 0 0 -.13333 -224.45 1759.219)"/><path d="M8022.07 7030.6c-73.77-159.1-141.48-320.8-226.37-474.4-54.97-110.5-132.37-208-187.14-318.7l-28.3 31.1c-29.51 32-58.61 64.1-87.71 96 164.11 233.9 295.68 488.7 391.47 757.9l110.56-73.8 27.49-18.1" style="fill:#f9dc45;fill-opacity:1;fill-rule:nonzero;stroke:none" transform="matrix(.13333 0 0 -.13333 -224.45 1759.219)"/><path d="m2724.45 6410.5-46.89-51.5c-27.89-30.4-55.98-60.5-84.07-90.6-23.24-24.8-46.29-49.5-69.12-74.6-171.79 249.8-312.25 519.9-418.16 804 16.97 11.9 34.16 23.5 51.54 35.2 55.17 36.6 110.35 73.5 165.32 110.7 96.61-125.1 119.85-288 209.99-417.1 55.98-110 120.05-215.5 191.39-316.1" style="fill:#23262e;fill-opacity:1;fill-rule:nonzero;stroke:none" transform="matrix(.13333 0 0 -.13333 -224.45 1759.219)"/><path d="M5825.57 7744.4c-116.61-401.4-253.03-798.9-323.37-1212.6 0 .2-.2.6-.2.8-.4 1.4-.81 2.6-1.21 4-6.27 23.7-12.94 46.5-19.61 68.7-.4 1.6-1.01 3.1-1.41 4.7-90.14-36.2-158.86-109.8-254.45-135.2-36.38 0-69.73-16-104.49-23.7-46.69 5.3-80.84 45.7-127.13 50.9-120.05 13.2-226.36 79.7-334.49 129.2-.8.4-1.61.8-2.42 1-.2.2-.4.4-.6.4 0 .2-.21.6-.21.8-70.94 343.4-179.27 678.7-276.68 1015.8 1.41-1.2 2.83-2.4 4.25-3.6 26.27-21.5 52.14-43.9 75.38-68.7-.2-.3 0-.4.2-.4 16.17-17.8 30.72-37 42.85-58.1 2.02-3.4 3.84-6.6 5.66-10.1 0-.2 0-.4.2-.6 180.28-199.2 408.05-366.6 670.59-435.3 72.96 53.2 140.26 113 203.72 176.6 81.86 81.3 157.44 168.8 231.62 257.1l-.2.8c63.86 85.7 143.89 161.7 179.06 265.2l32.94-27.7" style="fill:#b4d7e8;fill-opacity:1;fill-rule:nonzero;stroke:none" transform="matrix(.13333 0 0 -.13333 -224.45 1759.219)"/><path d="M2157.14 7033c-17.38-11.7-34.56-23.3-51.54-35.2-100.44 270.4-177.44 548.9-229.99 832.7l49.92 3c68.1-269 122.88-543.6 231.61-800.5" style="fill:#33a159;fill-opacity:1;fill-rule:nonzero;stroke:none" transform="matrix(.13333 0 0 -.13333 -224.45 1759.219)"/><path d="M2365.91 7172.4c-14.34-9.3-28.69-18.6-42.84-28.3-55.17-37.1-110.35-74.1-165.93-111.1-108.73 256.9-163.51 531.5-231.61 800.5l-3.24 11.1 50.93 12.8c49.72 17.4 98.43 37.6 148.15 55.3l31.73 11.4c39.01-258.5 110.55-511.2 212.81-751.7" style="fill:#51c173;fill-opacity:1;fill-rule:nonzero;stroke:none" transform="matrix(.13333 0 0 -.13333 -224.45 1759.219)"/><path d="M8226.6 7854.5c-52.15-275.4-129.96-545.4-232.22-806.4l-110.56 73.8c-43.04 28.9-85.89 57.8-128.94 86.3 25.06 109.5 74.17 211.8 97.62 322 15.36 66.3 58.61 124.5 60.63 194 5.86 77.8 19.4 154.6 40.42 229.8l-1.01.6 105.1-38c55.17-20.2 110.14-40.4 165.52-60.6l3.44-1.5" style="fill:#2e62b7;fill-opacity:1;fill-rule:nonzero;stroke:none" transform="matrix(.13333 0 0 -.13333 -224.45 1759.219)"/><path d="M2481.32 7249.8c-38.6-25.8-77.21-51.7-116.01-77.4-102.27 240.5-173.81 493.2-212.82 751.7h.61l101.05 36.1c71.34-237.4 100.05-493.5 227.17-710.4" style="fill:#40bb69;fill-opacity:1;fill-rule:nonzero;stroke:none" transform="matrix(.13333 0 0 -.13333 -224.45 1759.219)"/><path d="M3900.71 7695.5c-24.05-26.9-48.1-54-72.55-80.9-343.58-371.2-682.11-745.7-1025.49-1116.4-26.48-29.1-52.15-58.6-78.22-87.7-71.34 100.6-135.41 206.1-191.39 316.1-90.14 129.1-113.38 292-209.99 417.1 14.15 9.7 28.5 19 42.84 28.3 38.81 25.7 77.41 51.4 116.01 77.4 390.07 261.6 780.74 522.5 1172.22 782.6l89.13 60.6c50.12-133.4 102.47-265.7 157.44-397.1" style="fill:#191c24;fill-opacity:1;fill-rule:nonzero;stroke:none" transform="matrix(.13333 0 0 -.13333 -224.45 1759.219)"/><path d="M2121.37 7912.7c-49.72-17.7-98.43-37.9-148.15-55.3-16.57 42.6-28.49 86.9-35.77 132.2-28.7 215.8-62.04 432.06-66.9 650.13 47.7 5.05 95.4 9.3 143.29 13.74 22.65-49.92 32.95-104.68 30.12-159.46 3.64-196.01 38-389.61 77.41-581.31" style="fill:#e7f3f7;fill-opacity:1;fill-rule:nonzero;stroke:none" transform="matrix(.13333 0 0 -.13333 -224.45 1759.219)"/><path d="m1973.22 7857.4-50.93-12.8c-51.94 232.7-70.33 472-92.16 709.23-3.43 27.08-1.41 54.57 6.27 80.84v.81l34.15 4.25c4.86-218.07 38.2-434.33 66.9-650.13 7.28-45.3 19.2-89.6 35.77-132.2" style="fill:#c4d6df;fill-opacity:1;fill-rule:nonzero;stroke:none" transform="matrix(.13333 0 0 -.13333 -224.45 1759.219)"/><path d="m1925.53 7834.3-49.92-3c-51.54 264.2-83.68 531.74-96.61 800.55l57.4 3.63c-7.68-26.26-9.7-53.75-6.27-80.83 21.83-237.25 40.42-476.55 92.16-709.15l3.24-11.2" style="fill:#9cbecb;fill-opacity:1;fill-rule:nonzero;stroke:none" transform="matrix(.13333 0 0 -.13333 -224.45 1759.219)"/><path d="M8160.91 8660.95c-13.14-212.41-33.35-424.45-66.49-635.05-8.69-37.6-21.02-74.1-36.58-109.3l-105.09 38-18 6.7c28.3 238.6 58.01 476.72 75.19 716.43l150.97-16.78" style="fill:#ee272c;fill-opacity:1;fill-rule:nonzero;stroke:none" transform="matrix(.13333 0 0 -.13333 -224.45 1759.219)"/><path d="M4409.82 6493.2v.2c-11.72 73.7-31.53 145.1-56.39 214.8-5.46 15.6-11.32 31.1-17.38 46.5-26.88 69.1-58.21 136.6-91.15 203.5-7.08 15-14.55 29.7-22.03 44.7-37.19 74.1-75.18 147.7-110.15 222.1-75.59 154.8-145.31 312.2-212.01 470.9-24.86 59.2-49.11 118.8-72.96 178.5-5.45 13.7-10.91 27.4-16.37 41.2-23.24 58.8-45.88 117.8-67.91 177-.2.4-.2.6-.4 1-10.92 28.5-21.42 57.4-31.53 85.9-.2.2-.2.2-.2.4l21.82 14.6 15.57 10.3c18.39 75.2-4.05 153.8 5.26 230.4 10.5 83.67-24.26 168.96 6.26 250.21 99.43-453.31 239.29-896.51 417.95-1324.81 119.25-301.5 278.1-590.8 346.01-909.5l-114.39 42.1" style="fill:#acd4e6;fill-opacity:1;fill-rule:nonzero;stroke:none" transform="matrix(.13333 0 0 -.13333 -224.45 1759.219)"/><path d="M5377.91 7926.5c-25.47-105.9-154.41-141.5-176.04-248.8-51.33-9.9-106.71-2-125.91 54.8-60.63 12.5-121.26 37.6-146.53 99.4-29.91 7.7-60.63 15-89.94 22.2-2.42 20.3-3.63 40.5-7.67 60.7-31.33 28.9-95.4 26.3-101.06 76.6-13.74 100 0 202.1-6.26 301.7 0 71.77-17.18 144.12-2.02 215.46l-1.62.81c25.46 99.64-20.21 204.13 20.21 301.95 215.04-112.17 470.91-113.59 687.16-3.84 29.51-108.73 2.63-220.3 12.53-330.44 10.51-120.05-4.65-240.54 2.83-360.74-1.82-67.1 14.56-162.9-65.68-189.8" style="fill:#d5ebef;fill-opacity:1;fill-rule:nonzero;stroke:none" transform="matrix(.13333 0 0 -.13333 -224.45 1759.219)"/><path d="M5745.13 9150.05c-57.39-150.57-183.71-260.72-318.11-343.58-216.25-109.74-472.12-108.33-687.16 3.84-113.18 71.75-222.32 159.26-282.95 282.95 30.92 15.76 61.84 31.33 93.17 46.88 114.39-192 332.06-324.58 558.62-310.43l1.62.61c232.02 1.61 438.17 157.64 539.62 360.15l95.19-40.42" style="fill:#a6cee2;fill-opacity:1;fill-rule:nonzero;stroke:none" transform="matrix(.13333 0 0 -.13333 -224.45 1759.219)"/><path d="M3710.53 8178.9c10.31-28.7 20.21-57.6 31.73-86.3l-87.71-59.6-1.62-1c-45.88 128.7-91.96 257.7-137.03 386.82l1.82.61 98.83 36.79c29.31-92.97 60.63-185.72 93.98-277.32m2389.91-2493.6c14.95-32.7 29.71-65.6 43.85-98.4-32.94-21.6-65.28-43.8-97.01-66.9v.2c-86.5 160.1-161.68 326.2-224.94 496.8-77.61 199.7-86.1 419.4-23.85 624.3v.2c62.05 201.1 167.95 383.8 257.89 573 0-.2.2-.2.4-.4v-.2c20.01-31.8 38.81-64.1 57.4-96.8-106.31-222.4-232.62-449.3-236.66-702.8-2.23-196.4 64.87-378.5 143.69-555.6 6.47-14.5 12.94-29.1 19.61-43.6 6.46-14.4 13.13-28.9 19.8-43.3a8988.2 8988.2 0 0 1 20.01-43.2c6.67-14.6 13.14-28.9 19.81-43.3m752.84 3538.52c-14.75-109.14-36.37-217.07-59.62-324.59a210.91 210.91 0 0 0-40.02-84.27c0-.21-.2-.41-.4-.61l-93.17 9.9h-.81c32.14 125.11 56.59 252.03 73.57 379.97h.81l15.56 2.62h.81c34.15 6.47 68.31 12.53 103.27 16.98" style="fill:#309655;fill-opacity:1;fill-rule:nonzero;stroke:none" transform="matrix(.13333 0 0 -.13333 -224.45 1759.219)"/><path d="M6733.64 9204.22c-16.98-127.94-41.43-254.86-73.57-379.97-30.11-121.26-65.08-242.52-102.06-363.78-27.29-88.13-56.19-175.67-88.32-262.77-47.7 87.1-20.22 187.98-21.43 281.76-3.23 76.6 17.18 161.69-30.31 228.79 32.94 177.04 72.35 353.89 87.91 533.55l-45.67 17.19v1.21c94.38-2.02 181.89-40.42 273.45-55.98" style="fill:#a1cee4;fill-opacity:1;fill-rule:nonzero;stroke:none" transform="matrix(.13333 0 0 -.13333 -224.45 1759.219)"/><path d="m3747.72 8204.4-14.56-9.9-21.62-15h-.2c-33.76 91.6-64.67 184.35-93.98 277.32v.21c-37.59 120.25-71.14 241.32-101.06 363.58v.21c-29.91 122.27-53.76 244.75-75.58 368.23h-.41c87.52 40.22 181.09 65.69 277.09 75.39.4.21.81.21 1.21.21-17.38-11.32-34.56-23.05-51.33-34.57-.81-.6-1.62-1.21-2.43-1.82 28.1-181.89 60.63-361.16 94.99-541.44-31.73-81.85 3.64-167.75-6.87-252.03-9.29-76.59 13.14-155.19-5.25-230.39" style="fill:#a3cee5;fill-opacity:1;fill-rule:nonzero;stroke:none" transform="matrix(.13333 0 0 -.13333 -224.45 1759.219)"/><path d="M3517.72 8419.43c44.87-128.93 90.95-257.93 136.83-386.43l-1.62-1-428.67-286.2c-9.5-6.3-18.8-12.5-28.09-18.8-95.19-63.4-190.18-126.9-285.38-190.6-10.3-6.6-20.61-13.5-30.72-20.4l-397.74-265.5c-127.12 216.6-155.83 472.7-226.97 709.9-.2.3-.2.3-.2.5h.41c420.17 153 840.56 305.9 1260.94 458.53h.2c.2.21.61.41.81.41 0-.2 0-.2.2-.41M6689.78 6068.5c27.49-50.1 54.77-100 82.06-150.1-126.93-83.9-262.74-151.6-392.09-231 0 0-.2 0-.2-.2-70.54-43.9-161.49-38.6-225.55-94l-9.5-6.3c-14.15 32.8-28.9 65.7-44.06 98.4-6.67 14.4-13.14 28.7-19.81 43.3a8988.2 8988.2 0 0 0-20.01 43.2c-6.67 14.4-13.34 28.9-19.8 43.3-6.47 14.5-13.14 29.1-19.61 43.6-78.62 177.1-145.72 359.2-143.49 555.6 4.04 253.5 130.35 480 236.66 702.8h1.01v2l.61-1.2.4-.4c26.68-50.4 53.76-100.5 81.05-150.6 80.84-150 162.69-299.5 244.95-448.9 27.69-50.3 55.58-100.8 83.47-151.4 54.57-99.4 109.34-198.6 163.91-298.1m1331.88 2629.64-65.48-14.35c-395.72 41.84-790.84 86.91-1186.57 128.94h-.2l-15.36 1.62c.2.2.4.4.4.61 19.4 24.66 33.15 53.55 40.02 84.27 23.24 107.52 44.87 215.45 59.62 324.59l74.78 10.1 2.22.2h.81c363.59 48.51 725.97 95 1088.75 144.11 12.94-87.32 11.11-175.03 9.5-262.75-1.01-50.32-2.02-100.64-.2-150.77 4.24-88.92 1.61-178.05-8.29-266.57" style="fill:#38b663;fill-opacity:1;fill-rule:nonzero;stroke:none" transform="matrix(.13333 0 0 -.13333 -224.45 1759.219)"/><path d="M5933.9 8123.2c-.2-.5-.2-1.1-.4-1.5-31.73-126.5-68.31-251.6-108.33-375.7l-32.95 27.7c-35.16-103.5-115.2-179.5-179.06-265.2-73.77-89.5-149.15-177.6-231.01-259.5-63.66-63.4-130.96-123-203.92-176-262.74 68.7-490.31 236.1-670.59 435.3-1.82 3.5-3.64 6.7-5.66 10.1-12.13 21.3-26.68 40.3-42.85 58.1-.2 0-.4.1-.2.4-23.04 25.2-49.11 47.9-75.59 69.3-1.41 1.4-2.83 2.4-4.24 3.6-173.01 536.6-310.64 1088.97-343.58 1653.65-28.1 2.22-56.19 4.24-84.08 5.86l.2.2 5.26 2.43h.2l19.61 8.89.2.2h.81c88.92 1.82 176.43 16.77 264.35 28.7h.4c40.02 5.46 80.04 10.31 120.26 12.93v-.2c24.25-91.76 49.11-184.72 95.8-268.39v-.21c59.42-123.08 168.75-210.59 282.54-282.54v-.2c.2 0 .2-.21.41-.21-.21-.4-.41-.81-.41-1.21-39.61-97.42 5.86-201.09-19.8-300.53v-.2c-15.17-71.35 1.21-143.7 2.01-215.47 5.67-101-7.47-202.1 6.27-301.7 2.22-19.2 13.14-30.7 27.29-39.2 15.76-9.5 35.97-15.4 53.35-23.9 2.63-1.4 5.06-2.6 7.48-4 4.65-2.8 9.09-5.9 12.93-9.5 4.04-20.2 5.26-40.4 7.68-60.7.41 0 .81-.2 1.21-.2v-.2c29.31-7 59.83-14.3 88.73-21.8v-.2c17.79-42.8 52.14-68.1 91.96-83.5 14.35-5.6 29.3-10.1 44.46-13.7 3.44-.6 6.67-1.4 10.11-2v-.2c8.49-25.1 24.05-40.4 43.25-48.9 5.66-2.9 11.92-4.9 18.39-6.3 20.01-4.6 42.44-3.6 64.27.6 21.63 108.1 150.57 142.9 176.04 248.8 80.84 26.9 63.86 122.7 65.68 189.8-7.48 120.2 7.68 240.69-2.83 360.74-9.91 109.74 16.77 221.51-12.33 329.23v.41c0 .2-.2.6-.2.81 134 81.65 260.11 191.38 317.51 342.36h.2c0 .41.2.81.4 1.22 27.49 68.1 48.71 138.64 63.06 210.79 36.99-2.22 74.17-4.65 111.36-8.28 0-.61-.2-1.01-.2-1.62-10.11-76-11.52-153-4.24-229.19 3.84-54.57-26.08-106.31-16.98-161.69.2-.8.2-1.61.4-2.42 2.83-17.78 5.06-35.57 7.08-53.16 1.01-9.29 1.82-18.59 2.62-27.89 14.35-174.41-7.88-348.63 5.46-522.85 4.45-42.06-6.87-87.26-8.89-130.56-.4-8.5-.61-16.6 0-24.9 1.41-27.2 8.89-53.3 29.1-76.5" style="fill:#c3e1ec;fill-opacity:1;fill-rule:nonzero;stroke:none" transform="matrix(.13333 0 0 -.13333 -224.45 1759.219)"/><path d="M2058.92 8660.14c4.24 161.69-16.37 321.35-6.27 482.23 5.86 82.86 4.25 165.93 2.63 248.79h.81l90.74-11.92 12.53-1.62c-8.48-149.15 1.82-298.1 0-447.06 1.62-83.46 23.24-169.97-6.87-250.82l47.9-3.23c-47.09-5.25-93.98-11.72-141.47-16.37" style="fill:#ed232b;fill-opacity:1;fill-rule:nonzero;stroke:none" transform="matrix(.13333 0 0 -.13333 -224.45 1759.219)"/><path d="m8336.74 8641.15-28.09 3.44-90.14 9.9c-1.41 174.62-12.73 350.24 9.3 524.06 1.62 65.89-12.94 130.76-15.97 196.44l-28.9 24.25c50.12 7.08 100.65 13.55 151.38 19 4.45-259.1-2.63-518.19 2.42-777.09" style="fill:#58c378;fill-opacity:1;fill-rule:nonzero;stroke:none" transform="matrix(.13333 0 0 -.13333 -224.45 1759.219)"/><path d="m8218.51 8654.49-57.6 6.46-150.97 16.78-53.76 6.06 65.48 14.35c9.9 88.52 12.53 177.65 8.29 266.57-4.85 137.85 11.72 276.29-9.3 413.52 40.42 5.45 82.26 9.9 123.49 15.56l38.8 5.45 28.9-24.25c3.03-65.68 17.59-130.55 15.97-196.44-22.03-173.82-10.71-349.44-9.3-524.06" style="fill:#46bd6d;fill-opacity:1;fill-rule:nonzero;stroke:none" transform="matrix(.13333 0 0 -.13333 -224.45 1759.219)"/><path d="M5693.19 9374.99c.4-64.07-14.35-127.32-43.25-184.52-101.05-202.1-307.6-358.54-539.62-360.15-226.56-14.15-444.64 118.43-558.62 310.43-41.84 69.93-68.32 147.94-78.02 228.79 190.19 30.32 384.01 25.06 575.2 37.39 215.04-4.45 430.08-12.33 644.31-31.94" style="fill:#d4e9ef;fill-opacity:1;fill-rule:nonzero;stroke:none" transform="matrix(.13333 0 0 -.13333 -224.45 1759.219)"/><path d="m2059.73 8660.14-49.32-3.23-48.7 9.5c-12.13 245.76-11.12 491.32-2.84 737.28 32.54-4.04 64.68-8.08 97.22-12.53 1.62-82.86 3.23-165.93-2.63-248.79-10.1-161.69 10.51-321.55 6.27-482.23" style="fill:#ee322f;fill-opacity:1;fill-rule:nonzero;stroke:none" transform="matrix(.13333 0 0 -.13333 -224.45 1759.219)"/><path d="m8394.55 8633.46-57.81 7.69c-5.05 258.9 2.03 517.99-2.42 777.09v3.84l63.46 6.27c10.11-264.76 12.13-530.33-3.23-794.89" style="fill:#33a55b;fill-opacity:1;fill-rule:nonzero;stroke:none" transform="matrix(.13333 0 0 -.13333 -224.45 1759.219)"/><path d="m6750.01 9206.64-16.37-2.63c-91.96 15.36-179.07 53.97-273.45 55.99-76.4 15.76-153.4 28.69-229.19 46.89l-29.51 15.35c-56.99 37.19-129.35 27.29-189.57 54.77a582.222 582.222 0 0 0-58.01 71.96v.2c62.25-8.69 124.9-15.36 187.15-25.06 113.99-17.99 227.57-40.43 340.55-64.47 88.12-21.84 176.64-42.65 265.77-60.64 0-30.72 1.01-61.64 2.63-92.36" style="fill:#7eb3d3;fill-opacity:1;fill-rule:nonzero;stroke:none" transform="matrix(.13333 0 0 -.13333 -224.45 1759.219)"/><path d="M4263.69 9453.82c-21.42-26.68-34.96-66.5-70.73-77.41-71.55-20.21-150.77-15.36-216.05-55.38l-25.27-11.52c-77.2-17.99-155.01-31.93-233.03-44.86-96.4-9.71-190.38-35.17-278.3-75.6 0 5.06-2.22 15.17-3.03 20.21-4.24 29.31-7.68 58.62-10.71 88.12 90.95 18.6 181.9 40.42 271.43 62.66 112.37 25.66 225.96 45.87 339.94 64.87 74.78 12.33 150.57 18.8 225.75 28.91" style="fill:#78aed1;fill-opacity:1;fill-rule:nonzero;stroke:none" transform="matrix(.13333 0 0 -.13333 -224.45 1759.219)"/><path d="M6201.9 9322.24c-94.59 4.65-188.16 17.79-281.94 30.12-37.19 3.64-74.38 6.06-111.37 8.29-14.34-72.16-35.57-142.69-63.05-210.8l-95.19 40.42c28.9 57.2 43.65 120.45 43.24 184.52-214.22 20.21-429.27 27.49-644.31 31.94-191.59-12.33-385.01-7.08-575.19-37.4 9.7-80.84 36.17-158.85 78.01-228.78-31.12-15.56-62.25-31.32-93.17-46.89-46.69 83.88-71.55 176.84-95.8 268.8-129.34-8.28-256.07-39.21-385.82-41.63 65.28 40.42 144.51 34.96 216.05 55.38 35.78 10.91 49.32 50.73 70.74 77.4 31.53 5.05 62.85 11.12 94.59 16.58 5.86 33.55 11.92 66.89 18.19 101.05 3.63-31.33 8.69-62.45 13.54-93.58 23.84 3.44 47.49 7.08 71.94 9.7 107.93 1.62 215.85 4.45 323.38 10.51 305.58 13.95 611.17-3.23 916.75-9.29-1.82 32.13-3.23 64.47-5.86 96.6 33.35-23.64 69.12-43.45 107.12-59.01 4.64-18.8 9.7-37.39 15.36-55.98 44.66-6.87 89.73-14.35 134.8-20.22 17.38-25.86 36.98-50.32 58.41-72.96 60.63-27.48 132.58-17.58 189.58-54.77" style="fill:#8fbed8;fill-opacity:1;fill-rule:nonzero;stroke:none" transform="matrix(.13333 0 0 -.13333 -224.45 1759.219)"/><path d="M5702.09 9488.18c-305.59 6.05-611.18 23.24-916.76 9.29-107.72-6.06-215.65-8.89-323.37-10.51 13.54 96.21 34.56 193.21 84.48 277.9 124.7 221.3 392.9 354.34 644.52 308.24 251.62-45.5 450.9-237.91 505.27-487.71 2.62-32.34 4.03-64.88 5.86-97.21" style="fill:#d2eaef;fill-opacity:1;fill-rule:nonzero;stroke:none" transform="matrix(.13333 0 0 -.13333 -224.45 1759.219)"/><path d="m6893.71 9700.39-11.32-4.45c-39.42-15.36-78.62-30.92-117.63-46.69-2.62 159.87-31.53 318.12-85.49 468.65l104.49 63.1c69.52-151.2 88.52-317.52 109.95-480.61" style="fill:#1e2129;fill-opacity:1;fill-rule:nonzero;stroke:none" transform="matrix(.13333 0 0 -.13333 -224.45 1759.219)"/><path d="M5804.15 9526.37c-38 15.57-73.97 35.37-107.32 59.22-54.36 249.8-253.64 442.21-505.27 487.71-251.62 46.1-519.81-86.94-644.51-308.24-49.92-84.68-70.94-181.89-84.48-277.9-24.46-2.62-48.1-6.26-71.95-9.7-4.85 31.13-9.91 62.25-13.54 93.58 27.48 167.75 112.57 320.74 240.7 432.56 251.02 220.4 654.43 228.1 915.35 20.2 152.99-123.13 250.61-302.19 271.02-497.43" style="fill:#77aed1;fill-opacity:1;fill-rule:nonzero;stroke:none" transform="matrix(.13333 0 0 -.13333 -224.45 1759.219)"/><path d="M3409.19 9644c-.4.2-.61.2-1.01.4-39.21 14.55-78.42 29.31-117.22 44.26l-11.32 4.25c30.31 164.91 41.63 336.09 115.2 489.89 0 .2.2.4.2.6l97.62-68.7.2-.2.61-.4c-52.35-151.38-80.64-310.04-84.28-470.1m107.32-823.18c30.31-122.28 63.86-243.54 101.05-363.79h-.2v-.21l-99.84-36.98c-.2 0-.61-.2-.81-.41h-.2c-10.31 36.18-21.22 72.36-32.34 108.54-3.64 12.12-7.48 24.05-11.12 36.18 0 .19-.2.19-.2.4-13.94 46.08-27.69 92.36-39.81 139.05-1.21 4.24-2.22 8.28-3.23 12.53-2.84 11.11-5.46 22.23-8.09 33.54-2.63 11.12-5.25 22.44-7.48 33.75-1.82 8.3-3.43 16.58-5.05 24.87v.2h.81l104.89 12.12 1.41.21h.21M6348.02 7615.7c.2-.2.2-.2.4-.5v-1.2c-.2-.2-.2-.6-.4-.8-71.95-167.3-148.75-332.2-232.02-494.3v-2c-.2.4-.4.6-.61 1-18.59 32.5-37.39 64.8-57.19 96.4l-1.42-.2c78.42 158.8 150.17 321.1 218.07 485 23.45-28.5 48.11-56.2 73.17-83.4m583.07 1618.63-2.22-.41-75.59-9.9c-34.96-4.45-69.12-10.51-103.27-16.98-.41 7.48-.81 15.16-1.01 22.84-.61 12.73-1.02 25.47-1.22 38.4-.2 10.31-.4 20.41-.4 30.72v1.01c13.94 116.01 20.01 232.42 17.58 349.24 39.01 15.77 78.01 31.33 117.43 46.69h.2v-.2c11.72-155.63-9.7-310.24-24.05-464.64l72.55 3.23" style="fill:#a0adb5;fill-opacity:1;fill-rule:nonzero;stroke:none" transform="matrix(.13333 0 0 -.13333 -224.45 1759.219)"/><path d="M8333.71 9422.08v-4.65c-50.73-5.65-101.05-11.92-151.37-18.99l-38.81-5.46c-30.11 253.04-32.54 509.31-85.09 759.52l.61.8c60.63 22.4 121.26 47.9 181.9 70.5 40.42-121.2 50.12-248.15 53.96-374.26 25.06-141.48 14.35-285.78 38.8-427.46" style="fill:#e4f2f7;fill-opacity:1;fill-rule:nonzero;stroke:none" transform="matrix(.13333 0 0 -.13333 -224.45 1759.219)"/><path d="M2162.8 9786.28c-30.92-84.28 1.62-175.22-24.45-260.31-15.97-48.71-3.04-99.03 7.88-147.34l-90.75 11.92c-32.54 4.45-64.67 8.49-97.21 12.54-38 4.65-75.79 9.09-113.59 12.93v4.45c9.71 55.38 16.58 111.16 20.21 167.34 7.08 210.8 45.68 418.39 70.54 626.49l1.82 1.3 8.28-3.3c57-22.2 114.6-43.6 171.6-66.5 33.75-13.3 67.5-26.6 101.04-40.4-40.42-101-40.42-212.41-55.37-319.12" style="fill:#2d62b7;fill-opacity:1;fill-rule:nonzero;stroke:none" transform="matrix(.13333 0 0 -.13333 -224.45 1759.219)"/><path d="m8396.97 9428.35-63.66-6.27c-24.46 141.48-13.74 285.98-38.81 427.46-3.83 126.11-14.55 253.46-53.96 374.26h.81c20.21 5.5 40.42 10.4 60.63 14.6 60.63-265.58 80.84-538.62 94.99-810.05" style="fill:#a2c2cf;fill-opacity:1;fill-rule:nonzero;stroke:none" transform="matrix(.13333 0 0 -.13333 -224.45 1759.219)"/><path d="M1937.05 10215.6h.2v-.2c-24.86-208.8-63.46-416.18-70.54-626.38-3.63-56.18-10.51-111.96-20.21-167.34l-1.62.2-67.1 6.27c10.92 200.28 30.12 400.17 57.81 598.85 10.1 72.3 21.22 144.5 33.55 216.4l67.91-27.8m6361.9-2386.5c-52.55-282.8-129.14-560.5-228.58-830.3l-.41.2-47.49 31.4-.4.2-27.49 18.1c8.49 21.7 16.77 43.3 24.86 64.9 2.02 5.5 4.04 10.7 5.86 16 8.29 22 16.17 44 24.05 66.3 0 .2.2.4.2.6 8.69 24.6 17.18 49.5 25.47 74.6 8.08 24.2 15.96 48.5 23.64 72.9.61 2.1 1.21 4.1 1.82 5.9 7.28 23 14.15 46.3 21.02 69.5.41 1.2.81 2.4 1.01 3.7 7.28 24.4 14.35 48.9 21.02 73.3 18.6 67.5 35.57 135.4 50.93 203.9 3.64 15.4 7.07 31 10.31 46.5 7.68 35.8 14.95 71.8 21.83 107.7.2.3.2.4.2.7l71.95-25.9v-.2h.2" style="fill:#245195;fill-opacity:1;fill-rule:nonzero;stroke:none" transform="matrix(.13333 0 0 -.13333 -224.45 1759.219)"/><path d="M3980.54 10567.8c-134.2-145.3-222.31-325.8-282.95-512.9-43.65 119.2-22.02 247.8-25.66 371.7-40.43-20.3-79.83-43.5-118.23-67.7-3.44 44.8-5.87 89.7-6.67 134.6 47.49-.2 94.78 3.4 141.47 11.3 44.46 14.7 75.59 52.3 108.53 83.8 16.98 17.8 33.96 36 51.95 53.2h.8c28.5 25.7 58.21 49.9 88.93 73 32.74-42.3 34.56-96.4 41.83-147" style="fill:#aad2e6;fill-opacity:1;fill-rule:nonzero;stroke:none" transform="matrix(.13333 0 0 -.13333 -224.45 1759.219)"/><path d="M3797.44 10588.6c-32.95-31.5-64.07-69.1-108.54-83.8-46.68-7.9-93.97-11.5-141.47-11.3 0 41.2.4 82.4 1.41 123.6 35.17 60.7 102.27 62.9 164.93 67.3 44.25-1.8 62.04 42.9 80.23 75.4-2.63-57-1.42-114.2 3.44-171.2" style="fill:#badbea;fill-opacity:1;fill-rule:nonzero;stroke:none" transform="matrix(.13333 0 0 -.13333 -224.45 1759.219)"/><path d="M6101.85 10804.5v.2c77.61-44.9 150.37-97.8 216.66-158 .2-.2.2-.2.41-.5l62.65-56.1.4-.4c27.49-25.1 52.95-52 76.4-80.9-23.25-114.4 17.58-233-11.52-347.8v-.2c-.2-1.4-.61-2.6-1.01-4.1v-.2c0-.2-.2-.2-.2-.4-77.21 186.8-184.53 364.8-340.76 496.2v4.3c1.62 49.3 0 98.2-3.03 147.9m367.84-2605c0-.2 0-.2-.21-.4 0-.2 0-.4-.2-.6-12.53-34.9-25.06-70.3-37.59-105.3v-.2c-27.89-74.5-55.99-148.9-85.09-222.5-9.9-24.6-19.8-49.1-29.91-73.6-13.54-32.7-27.48-65-41.63-97.4 0-.2-.21-.2-.21-.4-67.9-163.9-139.65-326.2-218.07-485v-.2c-89.93-188.8-195.64-371.7-257.68-572.6l-.61.2-42.44 10.5c-.4-.2-.81-.4-1.21-.6h-.2c-19.81-11.1-39.21-22.2-59.02-33.3v.2c.2.8.4 1.4.81 2.2 9.29 28.9 19.2 57.4 29.5 85.9 2.84 8.3 5.87 16.6 8.9 24.8 4.65 12.8 9.29 25.3 14.15 37.8 9.49 24.9 18.99 49.8 28.9 74.4 7.47 18.6 14.95 37.2 22.43 55.6 22.84 55.6 46.48 110.7 70.33 165.7 24.05 55.2 48.11 110.2 71.95 165.1 8.09 18.4 15.97 36.8 23.85 55.2 31.53 73.6 62.05 147.3 90.74 222.1l-1.41-.4c154.01 390.3 275.07 792.9 362.18 1203.37 0-.21.2-.21.2-.42l1.21-1.81c17.79-26.08 25.67-54.57 28.5-84.28.6-5.46 1.01-10.91 1.41-16.37.2-4.24.41-8.29.41-12.33 1.01-38.4-3.03-78.01-1.42-115.4.2-14.35-.2-28.9-1.01-43.65-4.04-80.24-17.58-163.11 22.44-236.31" style="fill:#abd3e6;fill-opacity:1;fill-rule:nonzero;stroke:none" transform="matrix(.13333 0 0 -.13333 -224.45 1759.219)"/><path d="M4617.38 10002.9c-127.93-111.73-213.22-264.52-240.91-432.06-6.26-33.55-12.33-66.9-18.19-101.06-31.73-5.46-63.05-11.52-94.59-16.57-75.18-10.11-150.97-16.57-225.75-28.9-8.89 238.68 18.8 477.17 82.26 707.39v1.6c75.99 275.7 237.07 534 478.38 693.6 28.1-103 4.05-209.6 11.32-314.4 6.87-169.8-3.63-340 7.48-509.6" style="fill:#c0dfeb;fill-opacity:1;fill-rule:nonzero;stroke:none" transform="matrix(.13333 0 0 -.13333 -224.45 1759.219)"/><path d="M6141.06 9423.9c-62.25 9.71-124.9 16.37-187.15 25.07-45.07 6.67-90.14 14.14-134.8 20.21-5.66 18.59-10.72 37.18-15.36 55.98-20.21 195.64-117.63 375.31-271.03 498.64 10.31 53.1 13.75 107.5 10.71 161.6-5.46 102.1 4.05 204.4 0 306.4 7.08 118.1-11.31 235.9-1.21 353.9l.81.8a1117.926 1117.926 0 0 0 406.23-444.6c154.61-300.3 189.58-644.93 191.8-978" style="fill:#bfddeb;fill-opacity:1;fill-rule:nonzero;stroke:none" transform="matrix(.13333 0 0 -.13333 -224.45 1759.219)"/><path d="M3426.57 9296.98c3.03-29.3 6.47-58.61 10.71-87.72l-110.55 14.35-11.11 1.62c-12.74 154.21-32.75 308.21-24.66 463.43 38.8-14.95 78.01-29.71 117.22-44.26.4-.2.61-.2 1.01-.4-1.62-115.81 4.24-231.62 17.38-346.62v-.4m3131.84-835.51 100.65-32.13-1.21-3.85c-40.42-132.39-92.17-260.89-138.24-391.49l-2.03 1.2v.2l-.8.4-84.68 57-.41.2-.4.2c12.73 35.2 25.05 70.6 37.79 105.7 0 .2.2.4.2.6l.2-.4.21-.2c32.13 86.5 60.63 174.05 88.32 262.78h.4v-.21M6784.97 10181l-.81-.4-.2-.2-104.29-62.3-.4-.2c-18.8 52.4-45.88 101.1-61.64 154.9 0 2 0 4.2.2 6.2 0 13.4.4 26.9 1.21 40.2 2.03 38.6 5.86 77 6.47 115.2v.9c0 86.4 2.02 172.9-2.02 259.3v.6c-1.42 12.5-4.05 36.7-5.26 49.1l.41.8h.2v.2c23.04 26.3 46.28 52.5 69.53 78.8l.6.6c23.65 26.5 47.3 53.2 71.14 79.6v-.8c4.05-47.5 6.27-95 7.28-142.7 1.62-78.4-.81-157-7.08-235.4-5.05-61.9-12.53-123.3-22.43-184.5-1.01-4.5-1.82-8.9-2.22-13.2-1.42-13.1-.61-25.8 1.82-38.2.4-1.8.6-3.4 1.01-5 .6-2.2 1.21-4.3 1.61-6.3l3.64-11.5c.41-1 .81-2 1.21-3 9.7-26.3 24.66-51.4 37.19-76.4 0-.2.2-.4.2-.6l.41-.6 2.22-5.1" style="fill:#224b8d;fill-opacity:1;fill-rule:nonzero;stroke:none" transform="matrix(.13333 0 0 -.13333 -224.45 1759.219)"/><path d="M4288.96 10798.4c-116.42-57.4-216.05-142.5-310.23-230.6-7.28 50.6-9.1 104.7-41.84 147 61.04 45.4 125.71 85.9 193.01 121.2l.81.6c45.07 23.5 91.15 45.1 138.04 64.9 19.6-30.5 26.88-67.3 20.21-103.1" style="fill:#b8dbea;fill-opacity:1;fill-rule:nonzero;stroke:none" transform="matrix(.13333 0 0 -.13333 -224.45 1759.219)"/><path d="M2218.79 10106c-34.16 13.2-67.91 26.5-101.06 40.4 35.17 114 39.61 235.1 73.77 348.5 2.63 8.5 5.25 17.1 8.29 25.6 3.03 8.7 6.26 17.2 9.7 25.7 2.42 7.3 4.65 14.8 6.66 22 4.45 14.8 8.49 29.5 12.54 44.5 7.07 26.5 13.54 53.4 20.41 79.8 4.04 15.8 8.28 31.4 12.73 46.9 2.22 8.1 4.65 16 7.08 24.1 9.49 31.3 20.41 62 34.15 91.7 2.63 5.7 5.26 11.3 8.08 16.8 8.29 16.8 17.59 33.1 28.3 49.1 0 .2.2.4.2.6v.2l.61.6c-.2-.2-.41-.6-.41-.8l63.67-43.6.4-.2 985.47-690.6.81-.6 4.85-3.3c0-.2-.2-.4-.2-.6-73.57-153.8-84.89-324.98-115.2-489.89-353.28 138.64-707.37 275.27-1060.85 413.09m1265.38-1578.03c11.12-35.98 22.23-72.15 32.54-108.54v-.2c-.2 0-.61-.2-.81-.41-420.18-152.82-840.36-305.62-1260.54-458.42-.2 0-.4-.2-.6-.2l-.61-.2-100.44-35.9-.61-.2-.61-.2-30.52-11v.3c-39.41 191.6-73.77 385-77.4 581.01 2.83 54.78-7.48 109.54-30.12 159.46l-3.43 3.44h.2l47.7 3.23h1.41c11.32 1.21 22.84 2.43 34.16 3.84 11.72 1.21 23.65 2.63 35.36 4.04.21.21.41.21.61 0h.21c22.23 2.84 44.05 5.46 66.48 8.09h1.02c1.21.21 2.43.21 3.64.4h-1.21c383.59 40.43 767.39 83.67 1150.99 125.51h1.01l1.01.2h.2l55.38 6.07h.2c1.62-8.29 3.23-16.57 4.85-24.87 2.23-11.31 4.85-22.63 7.48-33.75 2.63-11.31 5.25-22.43 8.09-33.54 1.01-4.25 2.02-8.29 3.23-12.53 12.12-46.69 25.87-92.97 39.81-139.05 0-.21.2-.21.2-.4 3.64-12.13 7.48-24.06 11.12-36.18M7380.58 6488.3c23.85-26.9 48.3-53.1 72.96-79.6l-.6-.6s-.21 0-.21-.2c-29.91-27.7-57.2-58-81.85-90.6-139.86-206.9-327.41-378.3-530.53-521.8-.2.4-.4.6-.61 1-22.23 40-44.67 80.2-66.9 120.3-.2.6-.6 1-1 1.6-27.29 50.1-54.57 100-82.06 150.1-54.36 99.5-109.14 198.7-163.91 298.1-27.89 50.6-55.78 101.1-83.47 151.4-82.05 149.4-163.91 298.9-244.95 448.9-27.29 50.1-54.37 100.2-81.05 150.6 83.47 161.6 160.28 327.4 232.43 494.9v1.2c138.24-150.3 276.27-300.7 414.32-451.1 33.95-36.9 67.9-73.9 101.86-111.1 171.79-187.2 343.17-374.5 514.76-562.1.2-.4.41-.6.81-1m763.56 2905.49h-.61c-41.03-5.66-82.66-10.11-122.88-15.56-362.78-49.11-725.16-95.6-1088.75-144.11h-.81l-2.22-.2-70.33-3.03v.21c14.35 154.4 35.77 309.01 24.05 464.64l11.32 4.44v.21c334.08 129.54 668.16 259.3 1002.24 389.51 54.17 21 108.53 42.2 162.7 63.2h.2c52.55-250.2 54.97-506.27 85.09-759.31" style="fill:#d2e4ea;fill-opacity:1;fill-rule:nonzero;stroke:none" transform="matrix(.13333 0 0 -.13333 -224.45 1759.219)"/><path d="M6101.85 10804.5c3.03-49.7 4.65-98.6 3.03-147.9v-4.1c-106.71 83.1-221.3 158.7-349.03 204.9v.3c.6.8 1.01 1.6 1.41 2.4 15.36 26.9 30.72 53.7 46.28 80.6.21 0 .21 0 .41-.2h.2c81.85-28.9 161.48-63.2 238.28-103.3h.2c20.22-10.5 40.22-21.2 59.22-32.5v-.2m523.86-369.2h-.2l-113.58 6.4-53.56 67.1c-23.45 28.9-48.91 55.8-76.4 80.9 1.21 37.8 2.83 75.5 3.24 113.3h.4c6.06-1.6 12.33-3.2 18.8-5 6.06-2 12.52-4.1 18.99-6.3 3.44-1.2 6.87-2.2 10.31-3.4 3.23-1.2 6.47-2.2 9.5-3.2 3.44-1.3 6.87-2.5 10.31-3.5 3.43-1.2 6.87-2.4 10.5-3.4 30.12-9.7 61.04-17.6 89.95-15.6 1.81 0 3.43.2 5.25.4 5.66.6 11.32 1.6 16.98 3.3 2.02.6 4.24 1.2 6.26 2 2.02.6 4.05 1.4 5.86 2 2.22 1.2 4.24 2 6.47 3.2 1.82 1 3.84 2.1 5.86 3.3 4.04 2.4 7.88 5 11.72 8.1 1.83 1.6 3.64 3.2 5.66 4.8 1.82 1.8 3.64 3.6 5.46 5.5l.2.2v-.4c4.05-86.3 2.02-173.3 2.02-259.7" style="fill:#badaea;fill-opacity:1;fill-rule:nonzero;stroke:none" transform="matrix(.13333 0 0 -.13333 -224.45 1759.219)"/><path d="M4289.77 10799.6c6.67 35.8-.61 72.6-20.21 103.1 88.92 37.6 181.29 67.3 275.47 88.5 40.42 8.1 82.25 15.2 123.28 23.7l-.8-.8c24.04 5.2 48.3 10.3 72.75 15.1 2.43-27.2 5.46-54.5 9.1-80.8-159.87-26.3-314.68-76.4-459.59-148.8" style="fill:#c6e3ec;fill-opacity:1;fill-rule:nonzero;stroke:none" transform="matrix(.13333 0 0 -.13333 -224.45 1759.219)"/><path d="m2339.44 10921.1.2-.2a475.267 475.267 0 0 1-28.5-48.9c-2.82-5.5-5.45-11.1-8.08-16.8-13.74-29.7-24.66-60.4-34.15-91.7-2.43-8.1-4.86-16-7.08-24.1-4.65-15.5-8.69-31.1-12.73-46.9-6.87-26.4-13.34-53.3-20.41-79.8-4.05-15-8.09-29.7-12.54-44.5-2.01-7.2-4.24-14.7-6.66-22-3.44-8.5-6.67-17-9.7-25.7-3.04-8.5-5.66-17.1-8.29-25.6-34.97-113.6-39.61-234.9-74.17-349.1v-.2c0-.2-.2-.6-.2-.8-57 22.9-114.6 44.3-171.6 66.5 0 .4.21.6.21 1 42.03 215.7 108.73 426.1 158.65 640.1 18.79 63.1 42.85 124.3 72.15 183.1 44.87-31.7 89.74-64.1 135.01-95.4l27.89-19m5241.03-4652.5v-.2c-94.59-150.6-216.87-281.1-338.74-409.7h-.2c-93.57-77.6-179.27-166.9-283.15-230.1-6.87-4.1-13.95-8.3-21.02-12.4-15.56 28.1-30.52 55.8-45.67 83.5 0 .2-.21.2-.21.4-17.58 31.9-34.76 64.1-52.14 96 .2 0 .2.2.4.4 201.91 143.3 390.27 314.7 530.13 521.4l-.21-.6c24.86 32.8 52.35 63.3 82.47 91.2v.2h.2l.61-.6c1.81-2 4.03-4.5 6.26-7.1 2.22-2.6 4.85-5.5 7.48-8.3 5.66-6.1 11.52-12.3 16.77-18 3.44-3.8 6.67-7.3 9.1-9.9v-.2h.2c29.1-31.9 58.2-64 87.72-96" style="fill:#e6f3f7;fill-opacity:1;fill-rule:nonzero;stroke:none" transform="matrix(.13333 0 0 -.13333 -224.45 1759.219)"/><path d="M2175.73 11036.7c-29.3-58.8-53.35-120-72.15-183.1-49.92-214.4-116.82-424.4-158.85-641.1l-8.29 3.3-67.3 27.6c46.48 289.1 123.08 572.6 228.18 845.9 20.21-13.4 40.42-26.9 60.63-40.5l17.78-12.1" style="fill:#abc8d3;fill-opacity:1;fill-rule:nonzero;stroke:none" transform="matrix(.13333 0 0 -.13333 -224.45 1759.219)"/><path d="M5800.71 11173.1c-57.6-16.5-113.99-37.4-168.35-62.6v69.9h.81c40.42 16.6 80.84 33.2 121.26 47.7l46.28-55" style="fill:#5f8ca5;fill-opacity:1;fill-rule:nonzero;stroke:none" transform="matrix(.13333 0 0 -.13333 -224.45 1759.219)"/><path d="M4544.22 11177.8v-71c-40.43 19-80.85 37.8-123.89 53 1.21 17 3.44 50.7 4.65 67.7 40.42-15.8 79.43-32.9 119.24-49.7" style="fill:#5b8aa4;fill-opacity:1;fill-rule:nonzero;stroke:none" transform="matrix(.13333 0 0 -.13333 -224.45 1759.219)"/><path d="M5967.05 11187.9c-55.58.4-110.96-4.7-165.53-14.8l-46.28 55h-.6c26.47 9.3 52.94 17.6 80.83 25.3 51.75.4 100.65-24.1 131.58-65.5" style="fill:#6d9dba;fill-opacity:1;fill-rule:nonzero;stroke:none" transform="matrix(.13333 0 0 -.13333 -224.45 1759.219)"/><path d="M4424.98 11227.5c-1.21-17-3.44-50.7-4.65-67.7-72.56 24.5-149.76 26.7-225.55 27.5 44.46 32.3 91.75 64.5 149.35 64.7 27.49-6.5 54.37-14.8 80.85-24.5" style="fill:#6c9eba;fill-opacity:1;fill-rule:nonzero;stroke:none" transform="matrix(.13333 0 0 -.13333 -224.45 1759.219)"/><path d="M6384.8 10703c0-37.8-2.02-75.5-3.23-113.3l-63.06 56.5c19 159.1-21.62 336-139.86 450.1-60.43 50.6-134.4 82.5-212.61 91.6-30.93 41.2-79.63 65.7-131.17 65.5l44.67 12.3c116 3.2 226.55-40.4 323.37-102.7 130.96-114.2 175.63-292.6 181.89-460" style="fill:#8ab9d5;fill-opacity:1;fill-rule:nonzero;stroke:none" transform="matrix(.13333 0 0 -.13333 -224.45 1759.219)"/><path d="M4344.13 11252c-57.6 0-104.89-32.4-149.35-64.7-72.76-12.7-141.07-44.3-198.27-91.2-124.9-113.7-151.78-293.6-147.74-454.3-17.99-17.2-34.97-35.4-51.94-53.2-4.85 57-6.06 114.2-3.44 171.2 13.75 150.2 64.48 306.6 183.52 406.3 73.36 46.7 154.61 79.4 239.9 97 42.64-.4 85.29-4.1 127.32-11.1" style="fill:#8ab9d6;fill-opacity:1;fill-rule:nonzero;stroke:none" transform="matrix(.13333 0 0 -.13333 -224.45 1759.219)"/><path d="M4667.51 11013.7c-40.43-8.5-82.47-15.6-123.29-23.7v187.8c0 29.9 1.42 60.6 2.02 89.5l92.97 7.1c8.29 17.6 16.57 35.4 24.66 53.2 7.67-104.5-2.03-209.2 3.64-313.9" style="fill:#deeff3;fill-opacity:1;fill-rule:nonzero;stroke:none" transform="matrix(.13333 0 0 -.13333 -224.45 1759.219)"/><path d="M6624.1 10695.4c-66.09-69.8-163.1-10.3-238.49 7.6-7.07 167.4-51.74 345.8-181.9 460 0 83.9 0 167.8 1.62 251.7 38-15.6 74.78-33.6 110.35-54 208.78-129.2 277.09-386.6 303.16-615.6 1.21-12.6 3.84-37.4 5.26-49.7" style="fill:#cae3ec;fill-opacity:1;fill-rule:nonzero;stroke:none" transform="matrix(.13333 0 0 -.13333 -224.45 1759.219)"/><path d="M3976.91 11166.1c-119.04-99.7-169.77-256.1-183.52-406.3-17.58-32.7-35.57-77.6-80.84-75.4-62.65-4.4-129.75-6.6-164.92-67.3 2.02 43.7 4.65 87.1 8.89 130.8 24.46 228.4 94.59 485.1 303.16 613 36.39 20.6 73.77 38.8 112.38 54.6 4.24-83.1 5.86-166.4 4.85-249.4" style="fill:#c9e5eb;fill-opacity:1;fill-rule:nonzero;stroke:none" transform="matrix(.13333 0 0 -.13333 -224.45 1759.219)"/><path d="M4090.08 5448.3c73.57 3.6 147.14 6.2 220.71 9.5-69.93-159.1-194.63-292.5-228.39-467.1-379.95 102.7-734.86 281.5-1043.67 525.5-519.62 413.1-873.5 1003.8-1077.43 1629.6-57.2 181.5-115.61 366-142.49 555.3 12.74-17.1 23.25-35.7 30.93-55.7 156.63-714.3 468.88-1418.8 1006.69-1928.1 238.08-240.7 530.32-424.5 839.75-558.8 75.18-27.9 147.54-71 229.8-74.4v.6c1.81 14.5 4.04 29.1 6.87 43.4 2.42 12.8 10.1 35 14.95 49.7.61 2.3 1.21 4.3 1.82 5.9 34.77 83.7 84.89 158.7 126.92 239.5l13.54 25.1m4394.4 3249.43c-40.42-816.33-211.4-1646.53-634.41-2355.33-318.32-538.6-802.36-984.1-1384.02-1222.2-122.68-49.7-247.78-92.9-374.91-129.7-.2.6-.2 1.2-.4 1.8-22.84 131-101.06 239.5-167.75 351.1l3.64.6c65.68 13.3 131.77 23.4 198.46 29.9.41-.4.61-.8.81-1.2 25.87-45.9 52.35-91.4 76-138.7 3.03-6.4 6.06-12.7 9.09-19.2 12.73-27.7 24.66-55.9 36.78-84.2-.2-4.9-.61-9.5-.61-14.4-.2-.4-.2-1 0-1.6-.8-10.7-1.21-21.4-1.41-32.1-.2-2.5-.4-4.9-.4-7.3h.2c581.66 180.3 1092.79 569.9 1439.4 1068.9 217.87 306.4 380.57 644.5 499.81 998.6 5.86 17.6 11.73 35.4 17.58 53.4 11.52 35.4 22.64 71.1 33.15 106.7 0 0-.2.2 0 .4 15.77 53.6 30.92 107.7 45.07 161.9v.2c18.8 72.3 35.97 145.3 51.74 218.5 7.88 36.8 15.36 73.3 22.43 110.1 4.65 24.5 9.3 49.1 13.75 73.6 30.92 172 54.16 345 70.53 517.78 1.42 8.89 2.63 17.58 3.84 26.47v.4c3.24 25.27 5.46 50.74 7.28 76 7.47 110.15 4.85 220.9 20.81 330.44 1.21 203.73 11.73 408.46-13.74 610.97-4.04 125.1-12.53 250.01-25.47 374.3-7.88 74.78-17.17 149.16-28.09 223.54-4.24 28.3-8.49 56.4-13.14 84.7-20.01 117.6-42.64 235.2-68.71 352-4.45 19.7-8.89 39.5-13.34 59.1-9.09 39.2-18.6 78.4-28.7 117.6-64.68 254-147.94 503-260.11 740.7 0 .2-.2.4-.2.6-1.62 5.7-3.23 11.3-4.45 17-4.45 19.6-6.26 39.6-5.66 59.6h.81c158.66-313 261.12-652.2 338.73-993.7 126.72-579.29 161.69-1175.7 135.61-1767.27" style="fill:#91c0dc;fill-opacity:1;fill-rule:nonzero;stroke:none" transform="matrix(.13333 0 0 -.13333 -224.45 1759.219)"/><path d="M6202.5 11163.6c-96.41 60.7-206.96 105.9-323.37 102.7-7.07 55.8-20.21 117.2 12.94 168l.4-.6c54.97 17.1 113.59 16.7 170.78 20.2l29.91-5.3c25.47-5.8 51.13-12.3 76.4-20.2l34.56-12.5c-2.43-84.1-2.43-168.2-1.62-252.3" style="fill:#b5d8e8;fill-opacity:1;fill-rule:nonzero;stroke:none" transform="matrix(.13333 0 0 -.13333 -224.45 1759.219)"/><path d="M4219.23 11389.6c.81-13.5-.2-27.7-1.41-42-.41-3.7-.61-7.5-1.01-11.2-.61-7.2-1.42-14.3-1.82-21.6-1.21-17.8-1.42-35.4 1.82-51.7v-.2c-85.29-17.6-166.54-50.3-239.9-97v.2c1.01 83-.61 166.1-4.85 249.2l32.54 11.5v.2c6.46 2 12.93 4 19.4 5.8 12.93 3.7 26.07 7.1 39.2 10.2l20.01 4.2c32.14 6.5 64.68 11.9 97.42 16.4 1.62-1.2 3.23-2.3 4.85-3.7.4-.2.81-.4 1.21-1 1.42-1 2.83-2.2 4.04-3.2 1.82-1.6 3.64-3.3 5.26-5.1 2.42-2.6 4.65-5.2 6.67-8.1 1.82-2.4 3.43-5 4.85-7.6 1.62-2.7 3.03-5.5 4.24-8.5 0 0 0-.2.2-.4 1.01-2.7 2.03-5.5 2.84-8.3 2.62-8.9 3.83-18.4 4.44-28.1M6231 9306.89h-96c-20.21-401.59-94.99-798.73-200.69-1186.19-.21.4-.61.6-.81 1-20.21 23.7-27.69 50.4-28.7 78-.61 8.3-.4 16.4 0 24.9 2.63 42.7 13.54 86.9 9.3 128.14-12.13 151.38 3.43 303.76-1.82 454.74-.81 23.44-2.02 47.09-4.05 70.53-.8 9.3-1.61 18.6-2.62 27.89-2.02 17.59-4.25 35.38-7.08 53.16-.2.81-.2 1.62-.4 2.42-7.88 53.76 20.62 104.7 17.38 159.27-7.28 76.8-5.86 154.2 4.45 230.8l-.41.81h.41c93.57-12.33 187.15-25.47 281.53-30.12l23.65-12.33 5.86-3.02" style="fill:#b8d9ea;fill-opacity:1;fill-rule:nonzero;stroke:none" transform="matrix(.13333 0 0 -.13333 -224.45 1759.219)"/><path d="M4546.24 11266.9c0-29.7-1.41-59.6-2.02-89.5-40.43 16.8-79.23 33.9-119.24 49.7-26.48 9.7-53.36 18-80.85 24.5-42.03 7-84.68 10.7-127.32 11.1-13.54 67.5 32.54 154.8-36.18 200.7v.4c124.09 8.5 248.39-12.2 362.78-60.7 1.21-45.2 3.03-90.7 2.83-136.2" style="fill:#a4cfe5;fill-opacity:1;fill-rule:nonzero;stroke:none" transform="matrix(.13333 0 0 -.13333 -224.45 1759.219)"/><path d="M3859.48 11360.7c-10.1-6.3-20.01-12.9-29.5-19.8-132.99-96-203.73-247.8-242.13-406.5-2.62-11.3-5.25-22.8-7.68-34.1-6.26-29.3-11.32-58.4-15.36-87.5-2.42-14.6-4.24-29.1-5.86-43.5-1.01-7-1.82-14.1-2.63-21v-.6c-48.71 49.9-94.18 102.7-139.65 155.4-.41.2-.61.6-.81.8l-.2.2-3.44 4.3-.81.8c0 .2.21.6.21.8 31.52 142.7 65.48 296.5 177.04 400.4 59.22 68.7 148.35 94.8 218.68 148.3h.81c17.18-32.3 33.95-65.1 51.13-97.6l.2-.2v-.2m271.92-525.4c-67.63-34.7-132.69-74.5-194.15-119.4-.41-.4-1.02-.8-1.43-1.2-30.53-22.4-59.86-45.9-88.19-70.9-2.52 160.3 26.07 339.5 151.64 451.9.21.2.21.2.41.4 44.45-86.4 89.31-172.7 131.52-260.4 0-.2.2-.2.2-.4m278.22-4342.6c9.09-63 10.71-125 6.26-186.1 0-1 0-2-.2-3.2-2.22-27.9-5.46-55.6-10.11-83.1-.2-2.4-.6-4.8-1.21-7.3-3.44-20.6-7.48-41-12.12-61.4-3.44-14.3-6.88-28.9-10.72-43.3-3.84-14.3-7.88-28.7-12.32-43-4.25-14.2-8.9-28.5-13.54-42.6-55.39-166-139.26-325.2-215.25-479.2-.2-.2-.2-.4-.4-.6-41.43 10.3-82.26 20.2-123.29 31.3l.2.6c3.24 6.3 9.91 19.8 13.34 26.5 110.96 220.3 226.77 445.6 260.92 693 8.69 73.4 6.87 145.7-2.83 216.8-29.1 214.5-130.56 418.2-234.84 606v.2c1.81 2.6 4.64 8 6.06 10.7.2.2.2.4.2.6 17.58 31.9 35.37 63.6 52.75 95.4v.6c17.58-37 35.77-74 54.37-110.8 18.59-37 37.38-73.9 55.98-110.9 7.48-15 14.95-29.7 22.03-44.7 12.33-25.1 24.25-50.3 36.18-75.6v-.2c7.68-16.8 15.36-33.5 23.04-50.5 11.12-25.7 21.82-51.3 31.93-77.2 6.06-15.4 11.92-30.9 17.38-46.5 6.26-17.6 12.13-35.2 17.58-52.7 16.37-53 29.71-107.2 38.61-162.8m1909.09 4155.2c-66.09 60-138.44 112.7-215.85 157.4-20.21 11.3-40.42 22-59.42 32.5 44.87 86.1 89.74 172.2 135.82 257.7v.2c.4.4.6.8.81 1.2 118.23-114.1 158.85-291 139.85-450-.4.4-.8.8-1.21 1m113.59-2554.5 85.49-57.4c0-.2-.21-.4-.21-.6v-.2c-48.1-143.1-109.13-281.1-168.96-419.5l-.4.4c-25.06 27.2-49.72 54.9-73.16 83.4 14.15 32.4 28.09 64.7 41.63 97.4 10.11 24.5 20.01 49 29.91 73.6 29.51 73.8 57.61 148 85.5 222.3 0 .2.2.4.2.6m331.05 2815.6-4.45-5.3c-23.24-26.2-46.48-52.7-69.93-79l-.6-.6c-23.05-26.1-46.08-51.9-69.73-78v-.2c-.41-.4-.81-1-1.21-1.4-25.67 229-93.98 486.4-303.16 615.6l1.21.6c0 .2.2.2.2.4 16.57 32.3 33.35 65.1 50.73 97.4 0 0 .2 0 .2-.2.2 0 .41-.2.61-.2v-.2c65.48-45.5 143.09-73.2 200.89-129.5 3.84-3.7 7.48-7.5 11.12-11.4 17.78-16.5 33.95-34.5 48.3-53.3 8.49-11.1 16.37-22.9 23.85-34.6 2.63-4 5.05-8.3 7.68-12.3 6.87-12.1 13.54-24.5 19.8-37 4.25-8.7 8.09-17.2 12.13-25.9 21.22-48.7 36.99-100.4 50.33-152.1 7.88-31 15.16-62.1 22.03-92.8" style="fill:#bfa018;fill-opacity:1;fill-rule:nonzero;stroke:none" transform="matrix(.13333 0 0 -.13333 -224.45 1759.219)"/><path d="M4667.1 11563c0-70.3-4.65-141.5-3.44-211.2v-24.2c-8.08-17.8-16.37-35.6-24.66-53.2l-92.96-7.1c0 45.5-1.62 91-2.83 136.2-1.21 34.2-2.02 68.2-1.82 101.1l.2 1c45.07 10.9 87.72 30.3 125.51 57.4" style="fill:#c5e1ed;fill-opacity:1;fill-rule:nonzero;stroke:none" transform="matrix(.13333 0 0 -.13333 -224.45 1759.219)"/><path d="m3315.62 9225.23-1156.26 151.78h-.4l-12.13 1.62c0 .2 0 .4-.2.61-10.91 48.1-23.65 98.22-7.68 146.73 26.08 85.09-6.46 176.03 24.45 260.31v.61c14.96 106.71 15.37 217.31 55.39 319.11 353.48-137.82 707.57-274.45 1060.85-413.09l11.32-4.25c-8.09-155.22 11.92-309.22 24.66-463.43m3421.86 1064.27c-2.43 12.4-3.24 25.1-1.82 38.2.4 4.3 1.21 8.7 2.22 13.2 9.9 61.2 17.38 122.6 22.43 184.5 6.27 78.4 8.7 157 7.08 235.4-1.21 47.5-3.64 95-7.48 142.5l.2.2 4.25 5.1-.41.6-.4.4c199.88 230.6 402.39 459.6 603.69 689l.4.4c.21-.2.21-.2.41-.4 65.48-79.1 110.55-171.8 158.25-262.4 80.84-140.6 148.34-288.6 202.1-441.6l39.01-19.6h.2l.61-.2.6-.4c-328.62-229.6-655.43-461.8-986.07-688.3-.2-.2-.41-.2-.61-.5-.2.5-.4.9-.61 1.3-11.92 25.2-26.88 50.3-36.58 76.8-.4 1-.8 2-1.21 3l-3.64 11.5c-.4 2-1.01 4.1-1.61 6.3-.41 1.6-.61 3.2-1.01 5m1022.45-3060.9c-2.02-6.4-3.63-12.9-5.05-19.6v-.2l-1.82 1.2-1.01.8h-.2c-411.49 272.3-820.15 549-1231.84 822 0 .2.2.4.2.6 45.88 131 98.22 258.5 138.44 390.28.21.4.21.81.41 1.21 425.84-152.19 850.26-309.19 1275.49-463.19 0 0 .2 0 .2-.2.21 0 .61-.2.81-.2l17.99-6.7v-.6h-.2c-5.05-18-9.7-36.4-13.74-54.8-6.87-30.3-12.53-60.6-16.98-91.1-1.21-7.5-2.22-15-3.23-22.5-.41-2.6-.61-5.2-1.01-7.9-1.02-8-1.83-16.1-2.63-24.4-1.01-9.7-1.82-19.4-2.63-29.1-.81-26.1-7.27-50.5-15.97-74.4-4.44-12.1-9.29-23.8-14.15-35.6-8.48-20-17.17-39.8-23.84-60.2-2.63-7.7-4.85-15.3-6.67-23.2-3.03-13.8-6.27-27.5-9.91-41.1-6.26-23.8-13.54-47.2-21.42-70.7-3.23-9.9-6.67-19.8-10.1-29.9-4.85-15-10.11-29.7-15.16-44.7-11.12-31.5-21.83-63.2-30.52-95.4-2.22-6.6-4.04-13.5-5.46-20.4" style="fill:#2556ac;fill-opacity:1;fill-rule:nonzero;stroke:none" transform="matrix(.13333 0 0 -.13333 -224.45 1759.219)"/><path d="M5804.15 10940.7v-.2h-.2c-15.56-26.9-30.93-53.7-46.08-80.6-.41-.8-1.01-1.6-1.42-2.5-.2 0-.4.3-.6.3-122.07 38.4-245.36 81.8-374.91 80.8-2.83 0-5.66 0-8.49-.2 58.61-27.3 115.61-58 170.38-92 .2-.2.2-.4.4-.4-10.1-118 8.29-235.8 1.21-353.9 3.24-101-6.26-204.3 0-306.4 3.04-54.1-.4-108.5-10.71-161.6-.2.2-.6.4-.81.6-62.85 49.9-133.99 87.3-209.38 112.1-.81.2-1.61.4-2.43.8-8.89 2.9-17.78 5.7-26.68 8.1-8.08 2.5-16.16 4.7-24.24 6.5-30.32 7.7-61.24 13.3-92.17 17-3.43.4-7.07.8-10.5 1.2l-18.8 1.8c-1.21 0-2.22.2-3.03.2-6.06.4-12.13.8-17.99 1-183.11 9.5-369.85-47.3-509.31-169.5v.2c-11.11 169.5 0 339.5-7.48 509.3-7.27 104.9 16.78 211.4-11.31 314.4 60.43 39.5 123.48 74.6 188.97 104.9l-38.2 15.4c-3.64 27.1-6.67 54.4-9.1 80.8 40.43 7.7 81.86 14 123.29 20.2-.2.2-.2.7-.41.9-10.51 18.5-19.8 37.9-27.48 57.6-17.99 44.2-29.31 90.5-33.75 137.8-2.03 20.4-2.63 41.2-2.03 61.8.2 9.7.81 19.2 1.62 28.9.41 4.7.81 9.5 1.42 14.4l1.61 59.6v1c184.73 32.4 374.1-10.5 558.42 23.1.41 2.4.61 4.6 1.01 7 6.47 44.1 12.33 88.4 17.99 132.4.41 2.4.81 5.1 1.01 7.5 0 .2.2.4.2.6 30.32-2.6 67.51 10.7 95.4-2.8 2.02-.8 3.84-1.9 5.66-3.1 3.23-2 6.26-4.6 9.29-7.8 12.53-45.9 21.43-92.6 26.48-139.9h.81l96.4-6.5h.81c0-.2 0-.4.2-.6 2.43-10.1 6.87-29.5 9.3-40.4v-.2c.2-.6.4-1 .4-1.6.21-.2.21-.2.21-.4 0-8.7 0-17.4.2-26.1.2-23.2.6-46.7 1.41-69.9.41-17.6.81-35.4 1.21-53 .61-16.3 1.02-32.5 1.22-48.9v-69.9c2.42-39.2-8.49-83.1 7.68-119.7 6.67-2.4 13.34-4.6 20.21-6.8 40.42-13 81.65-23.3 122.27-36.4 7.08-2.2 13.95-4.5 20.82-6.9" style="fill:#d4ebef;fill-opacity:1;fill-rule:nonzero;stroke:none" transform="matrix(.13333 0 0 -.13333 -224.45 1759.219)"/><path d="M4806.55 11574.1c0-54.6 0-109.1-1.21-163.5l-1.62-60.6c-45.87 11.5-93.98 11.9-140.06 1.4-1.21 70.5 2.63 141.5 3.44 211.2v42l-.81.4c48.51 1.5 96.81-9.3 140.26-30.9" style="fill:#dff0f4;fill-opacity:1;fill-rule:nonzero;stroke:none" transform="matrix(.13333 0 0 -.13333 -224.45 1759.219)"/><path d="M2795.8 11612.1c-89.33-139.6-189.58-274.4-250.82-429.9-50.53-99.8-94.58-202.1-141.47-304.3l-64.27 44-28.1 19.2c55.58 129.8 95.4 266.8 168.56 388.3h.41c73.97 126.5 128.33 270.6 239.7 370.4l31.92-37c14.56-16.9 29.11-33.7 44.07-50.7" style="fill:#ee2a2d;fill-opacity:1;fill-rule:nonzero;stroke:none" transform="matrix(.13333 0 0 -.13333 -224.45 1759.219)"/><path d="m5619.83 11420.9-98.02 6.5c-5.06 47.3-13.95 94-26.48 139.8-28.49 30.8-74.98 10.4-111.36 13.8-6.26-49.3-12.93-98.6-20.21-148-184.32-33.5-373.7 9.3-558.42-23 0 54.4 0 108.9 1.21 163.5 178.67 31.3 361.37-3.8 540.43 18.2 30.32 33.6 23.86 86.1 34.97 128.1v.6c40.42-7 80.84-14.7 121.26-22.8 7.07-40.4 14.15-80.8 21.63-121.3l88.12 9.1c3.43-54.7 3.63-109.5 6.87-164.5" style="fill:#bddeeb;fill-opacity:1;fill-rule:nonzero;stroke:none" transform="matrix(.13333 0 0 -.13333 -224.45 1759.219)"/><path d="M3938.91 11735c21.83-106.9 71.75-206.2 144.3-287.6-6.67-1.4-13.34-2.8-20.01-4.4-13.13-3.1-26.27-6.5-39.2-10.2-6.47-1.8-12.94-3.6-19.4-5.6-37.19 52.9-64.68 112.2-80.85 174.8v1.2c1.82 44.7 6.88 89.2 14.96 133 0-.4.2-.6.2-1v-.2m2306.44-150.6c-15.76-56.2-41.23-109.1-75.39-156.2-.2-.2-.4-.2-.4-.4-25.06 7.9-50.73 14.3-75.99 20.2h-.41c.21.2.41.4.41.6 70.73 82.5 119.64 181.5 143.09 287.4 9.7-49.9 12.53-100.8 8.69-151.6" style="fill:#4b809d;fill-opacity:1;fill-rule:nonzero;stroke:none" transform="matrix(.13333 0 0 -.13333 -224.45 1759.219)"/><path d="M6236.66 11736c-23.25-106.5-72.56-205.7-143.5-288.6l-29.91 5.3c-145.72 27.6-296.49 9.9-431.9-50.8 13.94 115.6 12.12 251.6-91.35 327.8v.6a736.82 736.82 0 0 0 211.8 0c118.04 9.1 236.67 11 354.91 5.9 42.84-1.2 85.68 3.6 127.32 14.4 0-3.7 2.02-11 2.63-14.6" style="fill:#6395b0;fill-opacity:1;fill-rule:nonzero;stroke:none" transform="matrix(.13333 0 0 -.13333 -224.45 1759.219)"/><path d="M4665.88 11749.7V11563c-37.79-27.1-80.43-46.5-125.5-57.4-13.95 97.6 38.2 184.9 116.01 239.3h1.81l7.68 4.8" style="fill:#b3d7e8;fill-opacity:1;fill-rule:nonzero;stroke:none" transform="matrix(.13333 0 0 -.13333 -224.45 1759.219)"/><path d="M4541.59 11505.6c0-33.9 0-67.9 1.82-101-114.39 48.5-238.69 69.1-362.78 60.6-32.74-4.5-65.28-9.9-97.42-16.4-72.75 81.9-122.88 181.7-144.5 289l9.5 27.1c166.33-19 334.08-2.6 501.02-8.3 69.32-2.6 141.47 10.9 208.37-11.7-77.81-54.4-129.95-141.5-116.01-239.3" style="fill:#6294af;fill-opacity:1;fill-rule:nonzero;stroke:none" transform="matrix(.13333 0 0 -.13333 -224.45 1759.219)"/><path d="m5631.15 11402.5-2.83-24.6c-2.43 10.7-7.48 32.5-10.11 43.2-3.23 55-3.43 109.8-6.87 164.5l-88.12-9.1c-7.48 40.5-14.55 80.9-21.62 121.3-40.43 8.1-80.85 15.8-121.27 22.8-11.11-42-4.65-94.5-34.96-128.1-179.07-22-361.77 13.1-540.43-18.2 0 45.1 0 90.2 1.01 135.4 173.81 4.9 348.03-8.5 521.43 2.5l1.62-.2c27.89 29.1 51.33 62.2 80.84 89.9 45.07-20.6 88.53-44.5 129.96-71.6 103.47-76.1 105.29-212.2 91.35-327.8" style="fill:#afd5e7;fill-opacity:1;fill-rule:nonzero;stroke:none" transform="matrix(.13333 0 0 -.13333 -224.45 1759.219)"/><path d="M4807.56 11709.5c-1.41-45.2-1.01-90.3-1.01-135.4-43.45 21.6-91.75 32.4-140.26 30.9-1.21 48.3-1.42 96.6 0 144.7h-1.01c48.3 28.1 99.44 51 152.59 68.6-4.45-36.2-8.49-72.4-10.31-108.8" style="fill:#c8e4ec;fill-opacity:1;fill-rule:nonzero;stroke:none" transform="matrix(.13333 0 0 -.13333 -224.45 1759.219)"/><path d="M8007.31 11041.4c-79.22-56.4-159.66-111-239.29-166.8l-40.43 20.2c-53.76 153-121.26 301-202.1 441.6-47.7 90.6-92.97 183.6-158.65 262.8l1.01 1.2c17.78 20.2 35.57 40.4 53.76 61.8 26.27 30.4 53.15 60.7 80.84 90.6 26.27 29.7 51.94 60.4 78.22 89.3 70.73-77.8 117.22-172.8 171.58-262.7 107.32-168 174.42-356.7 255.06-538" style="fill:#2e63b6;fill-opacity:1;fill-rule:nonzero;stroke:none" transform="matrix(.13333 0 0 -.13333 -224.45 1759.219)"/><path d="M1844.68 9421.08h1.01v-5.26c-13.13-259.71 8.29-520.42-8.89-779.52v-.82h-.4l-56.99-3.63c-13.14 265.16-14.76 530.53-2.03 795.69l67.3-6.46m714.45 2054.82c-26.27-49.1-51.34-99-79.02-146.5-73.17-121.3-112.98-258.5-168.56-388.3-.2 0-.2.2-.41.2-45.06 31.3-89.93 63.5-134.6 95.2l-17.78 12.1c-20.21 13.8-40.42 27.3-60.63 40.5 108.53 293.2 253.64 571.7 431.9 828.6 13.94-16.4 28.29-32.9 42.64-49.3 0-.2.2-.4.41-.6l15.76-18.4c20.21-22.7 38.6-45.1 58.41-67.3v-.2h.2c24.05-27.3 48.3-54.6 72.36-82.1h-.21v-.2c-23.85-21.4-45.07-44.8-64.47-69.7-8.89-11.3-17.38-22.8-25.47-34.8l-15.15-23c-19.81-31.1-38-63.7-55.38-96.2m658.26-5873.8.2-.2c-12.33-28.3-24.65-56.8-36.78-85.3 0-.2-.2-.2-.2-.4-149.16 110.3-287.2 234.6-412.1 371-12.53 13.8-25.06 27.5-36.99 41.5-36.78 41.6-72.35 84.3-106.5 127.9-22.84 29.1-45.28 58.8-66.9 88.7-11.72 16.2-23.04 32.4-34.36 48.5.21.2.21.2.41.4 22.63 24.9 45.67 49.6 68.71 74.2 0-.2.2-.2.2-.4 82.06-155.6 205.34-282.7 329.84-404.8 90.95-95.2 203.32-166.1 294.47-261.1" style="fill:#d12d29;fill-opacity:1;fill-rule:nonzero;stroke:none" transform="matrix(.13333 0 0 -.13333 -224.45 1759.219)"/><path d="M3552.69 10265.7c5.45 22.8 7.88 46.1 4.85 70.3-1.02 7.5-2.43 14.8-4.45 22.2h.2c38.2 24.3 77.2 46.5 117.42 67.3 3.64-123.6-17.98-252.2 25.67-371.2-52.95-229.22-68.51-465.48-45.88-699.52l44.06 4.45h.21l2.22.2c-89.74-22.63-179.87-43.86-270.42-62.45-.4 0-.61-.2-1.01-.2-13.14 115-19 230.8-17.38 346.61v1.01c3.84 159.66 32.13 318.12 84.28 469.1.2.4.2.6.4 1 1.41 3.8 2.83 7.7 4.25 11.3 14.75 37.2 33.95 73.8 47.09 111.4 3.23 9.3 6.06 18.8 8.49 28.5" style="fill:#9fcee4;fill-opacity:1;fill-rule:nonzero;stroke:none" transform="matrix(.13333 0 0 -.13333 -224.45 1759.219)"/><path d="m2838.04 11563.6-.21.2c3.24 6.3 6.67 12.3 10.31 18.4 3.44 6.3 7.08 12.3 10.91 18.4 7.48 12.1 15.36 23.8 23.65 35.4 8.29 11.7 16.78 23 25.67 34.3 4.24 5.5 8.69 10.9 13.34 16.4 40.42 49.9 85.08 96.8 125.71 145.9 30.92 29.3 61.03 59.8 91.56 90.6-.21.2-.21.2 0 .2 15.35 15.3 30.51 30.7 45.67 45.8 76.6 76.4 156.84 148.6 254.86 195.9 0 0 .2 0 .2.2h.2c111.36-212 220.5-425 331.86-637.9 11.92-23 23.85-45.8 35.98-68.7.2-.2.2-.6.4-.8-70.34-53.6-159.46-79.6-218.68-148.3-111.56-103.9-145.52-257.7-177.05-400.4 0-.2-.2-.6-.2-.8l-.81.8c-95.59 109.1-190.99 218.3-286.58 327.4-95.6 108.9-191.2 218.1-286.79 327m1450.31-5052.5c9.5-70.9 11.32-143 2.63-216.2-34.16-247.6-150.16-472.9-261.12-693.4v-.2c-107.73 43.2-205.75 106.7-315.08 145.9-13.34 7.1-26.48 14.3-39.62 21.8-52.95 29.9-104.29 61.9-155.42 94.4-38.2 24.3-76.19 48.9-114.39 73.2 0 .2-.2.2-.2.2 159.06 289.2 317.91 578.6 476.36 868 57.4 104.3 114.59 208.6 171.79 312.9 0-.2.21-.2.21-.4v-.2c104.28-187.8 205.74-391.5 234.84-606" style="fill:#fad317;fill-opacity:1;fill-rule:nonzero;stroke:none" transform="matrix(.13333 0 0 -.13333 -224.45 1759.219)"/><path d="M5409.84 11801.9c-3.64-3.4-7.28-7.1-10.71-10.7-7.07-7.1-13.74-14.6-20.41-22.3-6.67-7.6-13.14-15.3-19.61-23-6.47-7.7-12.93-15.4-19.8-22.8-3.24-3.7-6.67-7.5-10.11-11.1h-.2c-173.41-11-347.42 2.4-521.24-2.5v.2c1.83 36.4 5.87 72.4 10.31 108.6 194.63 51.3 400.17 45.6 591.77-16.4" style="fill:#9fcee4;fill-opacity:1;fill-rule:nonzero;stroke:none" transform="matrix(.13333 0 0 -.13333 -224.45 1759.219)"/><path d="M5677.43 11989c-73.97-17.1-108.94-101-184.32-117-132.58-30.7-251.42 57.4-382.79 55.8-153.2 20.2-291.64-84.7-444.64-57.8-74.78 17.2-109.13 102.9-184.12 119.4-72.55 20.3-147.53 2.5-221.1 6.1 159.87 124.5 368.64 169.8 565.9 190.8h1.61c83.07 0 165.53 11.3 248.19 18.8 280.53-21.4 588.33-28.5 820.96-209.6-73.36-5.2-147.74 13.8-219.69-6.5" style="fill:#5d90ab;fill-opacity:1;fill-rule:nonzero;stroke:none" transform="matrix(.13333 0 0 -.13333 -224.45 1759.219)"/><path d="M6060.62 11453.7c1.01 0 1.82-.2 2.83-.4-.81 0-1.82 0-2.62-.2-.21 0-.21.2-.41 0-56.19-2.7-113.78-2.7-167.75-20.1-32.94-50.3-20.41-111.3-13.13-166.7 0-.2 0-.4.2-.6v-.6l-42.44-11.7h-.61l-1.62-.6c-26.88-7.5-52.95-15.8-79.63-24.9-.2 0-.4-.2-.6-.2-.2 0-.41-.2-.61-.2-40.42-14.5-80.64-31.1-121.06-47.7h-.2v.6c-.41 16.2-.61 32.6-1.02 48.9-.4 17.6-.8 35.4-1.21 53-.6 23.2-1.01 46.7-1.41 69.9-.2 8.5-.2 17-.41 25.5v1l2.23 23.2.2.4.2.2c134.4 60.3 283.96 78.2 428.67 51.2h.4" style="fill:#9fcee4;fill-opacity:1;fill-rule:nonzero;stroke:none" transform="matrix(.13333 0 0 -.13333 -224.45 1759.219)"/><path d="M6367.22 11457.9c-.2.2-.41.2-.61.4 17.59 32.8 35.17 65.9 52.15 99 8.48 16.8 16.77 33.6 25.26 50.4 7.88 16.7 15.97 33.5 23.65 50.3l.8.2c95.4 173.6 183.92 350.8 275.88 525.5 170.78-87.3 297.3-235.9 431.09-369.1 69.53-67.1 106.71-164.7 192.2-214.6.41-.2.61-.4 1.01-.6l-.6-.8-.41-.4c-201.9-229.4-404.01-458.4-603.69-689l-.4-.4c-6.87 30.7-14.15 61.8-22.23 93-13.34 51.7-29.11 103.4-50.33 152.1-4.04 8.7-7.88 17.2-12.13 25.9-6.06 12.5-12.73 25.1-19.8 37-2.63 4-5.05 8.3-7.68 12.3-7.48 11.7-15.36 23.5-23.85 34.6-14.35 18.8-30.52 36.8-48.3 53.3-3.64 3.9-7.28 7.7-11.12 11.4-58 55.7-135.41 83.4-200.89 129.5m153.2-3424.5c411.28-273.2 820.14-550.1 1232.84-822.6 0-.2-.2-.4-.2-.6v-.2c-27.89-69.1-54.57-138.4-78.62-208.9-28.5-85.3-87.92-155.1-125.3-236.1-45.88-98.2-113.39-183.9-168.56-276.7-.4.4-.61.6-.81 1-171.59 187.6-342.97 374.9-514.76 562.1-33.96 37.2-67.91 74.2-101.86 111.1-138.25 150.2-276.28 300.2-414.32 449.9-.41.2-.61.6-.81.8-.21.2-.21.2-.41.4v1.2c.2.3.2.7.41.9 0 .2 0 .2.2.4 60.43 138.2 120.86 276.2 168.56 419.1h.8l2.03-1.2.6-.6h.21" style="fill:#fad317;fill-opacity:1;fill-rule:nonzero;stroke:none" transform="matrix(.13333 0 0 -.13333 -224.45 1759.219)"/><path d="M8076.03 11089.1c-23.25-15.6-46.08-31.2-68.72-47.1-80.84 181.9-147.74 370-255.06 538-54.36 89.1-101.05 184.1-171.58 262.7l6.67 7.7c20 22.4 40.01 44.7 60.02 67.1 176.85-257.3 320.95-535.4 428.67-828.4" style="fill:#265297;fill-opacity:1;fill-rule:nonzero;stroke:none" transform="matrix(.13333 0 0 -.13333 -224.45 1759.219)"/><path d="M8288.44 8313.5c-12.73-153.6-40.42-305.1-65.07-456.9-55.39 20.2-110.16 40.4-165.33 60.6h-.2c15.56 35.2 27.89 71.8 36.58 109.3 33.14 210.4 53.35 422.24 66.49 634.45l57.6-6.46 90.14-9.9c13.74-111.17-13.34-220.51-20.21-331.09" style="fill:#f03d35;fill-opacity:1;fill-rule:nonzero;stroke:none" transform="matrix(.13333 0 0 -.13333 -224.45 1759.219)"/><path d="M8394.95 8633.46c-14.15-270.01-46.08-538.56-95.59-804.36h-.41l-.2.2-71.55 25.9-3.43 1.4c24.45 151.8 52.34 303.1 65.07 456.9 6.88 110.58 33.96 219.92 20.21 331.09l27.69-3.44 57.81-7.69h.4" style="fill:#d12d29;fill-opacity:1;fill-rule:nonzero;stroke:none" transform="matrix(.13333 0 0 -.13333 -224.45 1759.219)"/><path d="m3429.4 12185.1 10.51-20.2c-157.04-75.6-268.4-215.1-392.49-332.7-72.16-87.7-156.43-166.9-209.59-268.8-14.35 16.2-28.29 32.3-42.03 48.3-13.75 16-29.51 33.8-44.07 50.7 61.65 22.9 88.12 87.1 128.14 134.2 141.27 186.6 323.17 334.5 500.82 481.7 15.97-31.2 32.34-62.3 48.71-93.2" style="fill:#f9d71e;fill-opacity:1;fill-rule:nonzero;stroke:none" transform="matrix(.13333 0 0 -.13333 -224.45 1759.219)"/><path d="M6120.45 11923.6c46.89-51.2 85.08-109.6 113.58-172.8-41.64-10.8-84.48-15.6-127.32-14.4-118.24 5.1-236.87 3.2-354.91-5.9-26.47 3.9-52.95 6.1-79.43 7.1-17.58.4-35.36.4-52.94 0-26.48-1-52.96-3.2-79.43-7.1-41.43 27.1-84.89 51.2-129.95 71.8-191.81 62-397.35 67.7-592.18 16.4-53.15-17.6-104.29-40.5-152.59-68.5l-7.68-4.9c-67.71 22.6-139.05 9.1-208.37 11.7-166.54 5.7-334.08-10.7-500.02 8.1-.4.2-.6.2-1 .2 28.5 63.5 68.51 120.9 118.63 169.2l.41.4c91.35 89.7 205.74 151.4 323.17 200.1 48.3 20.2 97.81 35.9 147.54 51.7v-.4c179.46 50.7 364.19 76.2 548.92 76.2 11.71 0 23.64-.2 35.36-.4 8.9 0 17.79-.2 26.68-.6 9.9-.2 20.01-.6 29.91-1.2 7.28-.2 14.56-.6 21.63-1 9.29-.4 18.39-1.1 27.69-1.9 9.9-.6 20.01-1.4 30.11-2.2 37.39-3.2 74.78-7.5 111.97-12.7 11.11-1.6 22.23-3.3 33.55-5.1 24.65-3.8 49.11-8.3 73.56-13.1 10.31-2 20.62-4.2 30.93-6.5 11.52-2.4 23.24-5 34.76-7.7 11.72-2.6 23.44-5.4 34.96-8.2 22.84-5.9 45.68-12 68.31-18.4h.21c.2-.2.2-.2.4-.2 4.85-1.6 9.9-3.3 14.76-4.9 10.7-3.4 21.42-6.9 31.92-10.7 20.01-6.7 39.82-13.7 59.63-21 11.52-4.3 23.24-8.7 34.76-13.4.2 0 .2-.2.41-.2 7.47-2.8 14.95-5.8 22.43-9.1 84.07-34.7 162.9-80.6 234.65-136.2 12.73-9.9 25.46-20.2 37.79-30.7l.4-.4c12.53-10.7 24.86-21.8 36.79-33.1" style="fill:#588ba7;fill-opacity:1;fill-rule:nonzero;stroke:none" transform="matrix(.13333 0 0 -.13333 -224.45 1759.219)"/><path d="M7422.42 11662c-18.2-20.2-35.98-40.4-53.77-61.8-.2.2-.4.2-.6.4-85.9 49.7-123.08 147.7-192.61 214.8-133.79 133.2-260.31 281.8-431.09 369.1l14.55 27.1 43.25 82 .2.4c101.06-95.8 218.08-174.4 314.28-275.9 109.14-111.9 211-230.8 305.38-355.5v-.2c.2-.2.2-.2.41-.4m461.6-4539.5c0-.2-.2-.4-.2-.6-24.65-69.1-51.53-137.2-80.64-204.1-13.13-29.7-26.47-59.2-40.42-88.5-76.6-162.1-166.94-317.4-270.21-464.5-2.43 2.6-5.66 6.1-9.1 9.9-5.25 5.7-11.11 11.9-16.77 18-2.63 2.8-5.26 5.7-7.48 8.3-2.43 2.6-4.65 4.8-6.47 6.9-.2.2-.2.4-.6.6v.2c-24.66 26.5-49.12 52.7-72.96 79.6.2.4.4.6.6 1 54.97 92.4 122.28 177.9 167.95 275.7 37.39 80.8 96.81 150.8 125.31 236.1 24.05 70.7 50.93 140.4 78.82 209.7h.2l1.01-.6v-.2l1.82-1v-.2h.2c43.05-28.5 85.9-57.4 128.94-86.3" style="fill:#f9da27;fill-opacity:1;fill-rule:nonzero;stroke:none" transform="matrix(.13333 0 0 -.13333 -224.45 1759.219)"/><path d="M2719.6 11699.8c-24.05 27.5-48.3 54.8-72.35 82.1 96 80.8 158.25 193.6 247.37 282.9l.21-1c127.93 129 255.05 262.8 412.5 356.1 25.06-46.9 49.11-94.4 73.36-141.4-177.65-147.4-359.55-295.3-501.02-481.5-40.42-47.1-66.49-111.3-128.14-134.2l-31.93 37" style="fill:#f9dc3f;fill-opacity:1;fill-rule:nonzero;stroke:none" transform="matrix(.13333 0 0 -.13333 -224.45 1759.219)"/><path d="M3352.6 8801.41c-384-41.83-768-84.68-1152-125.51l-2.43.21h-1.02l-44.66 3.63h-.4c30.11 80.85 8.49 167.36 6.87 250.82 1.62 148.75-8.69 297.5 0 446.45v.61l.4-.61 1156.26-152.38 10.1-1.42 1.01-.2c8.29-132.17 42.04-260.72 71.75-389.25-14.75-10.92-29.71-21.22-44.67-31.54h-.2c-.41-.4-.61-.6-1.01-.81m36.78 1385.89-985.47 690.6c46.49 101 90.54 204.5 141.48 304.3 15.15 38.8 32.74 76.4 52.14 113.2 7.28 13.8 14.76 27.3 22.44 40.8 7.67 13.6 15.76 26.9 23.64 40.3v.2c48.51 79.8 102.26 156.6 152.19 235l.2.2c6.87-8.1 13.74-16 20.61-24v-.2c7.08-7.9 14.15-15.8 21.22-23.9l.21-.2c95.59-108.9 191.19-218.1 286.79-327 95.8-108.9 191.19-217.7 286.79-326.6l.6-.6.2-.2 4.25-5.1v-1c-21.22-189.6-4.05-380.3 18.79-568.9 9.5-54.2-23.04-101.1-45.27-147.5l-.81.6" style="fill:#ec1c26;fill-opacity:1;fill-rule:nonzero;stroke:none" transform="matrix(.13333 0 0 -.13333 -224.45 1759.219)"/><path d="M4031.68 12005.8c7.27-25.9 19.6-50.3 36.17-71.5-50.12-48.3-90.34-105.9-118.84-169.4l-9.7-27.7c-8.28-44.6-13.33-89.9-15.15-135.4-36.59 134.8-74.18 270.6-87.31 410.3h-.81c-18.19 132 15.76 265.8 94.59 373.3 36.17-125.9 65.27-253.5 101.05-379.6" style="fill:#9ecde3;fill-opacity:1;fill-rule:nonzero;stroke:none" transform="matrix(.13333 0 0 -.13333 -224.45 1759.219)"/><path d="M4042.79 7157.7c5.46-9.7 11.12-19.4 16.98-29.1 0-.2 0-.4-.2-.6-1.42-2.7-4.25-8.1-6.06-10.7v-.2c-57.41-104.1-114.8-208.2-172-312.3-159.05-289.2-317.91-578.6-476.36-868l-18.6-34.4v-.2c-188.16 98-329.84 264.8-468.08 421.8-25.87 69.9-110.55 95.2-116.21 173.8v.8h.41c21.42 23.1 42.84 46.3 64.27 69.3 278.7 301.6 554.58 605.5 832.88 907.7 42.64 46.5 85.49 93 128.34 139.5l.2-.3c17.58-41.2 34.96-82.4 52.75-123.6 31.12-72.2 63.06-143.9 98.02-214.1 5.05-10.3 10.3-20.4 15.36-30.5 10.31-19.8 20.61-39.6 31.53-59.2 5.46-9.9 11.11-19.8 16.77-29.7" style="fill:#ec1c26;fill-opacity:1;fill-rule:nonzero;stroke:none" transform="matrix(.13333 0 0 -.13333 -224.45 1759.219)"/><path d="M6246.16 12383.8c57.6-78.3 90.95-171.6 96-268.6 3.03-181.9-48.11-357.8-96.81-530.8 3.84 50.8 1.01 101.7-8.69 151.6v.6c0 3.4-1.62 10.3-2.63 14v.6c-28.5 63.2-66.69 121.6-113.58 172.8 48.3 151.3 82.46 306.8 125.71 459.8" style="fill:#9fcee4;fill-opacity:1;fill-rule:nonzero;stroke:none" transform="matrix(.13333 0 0 -.13333 -224.45 1759.219)"/><path d="M6508.89 12177c-32.13 116-117.42 204.5-209.78 276.7 168.96-47.9 312.65-150.8 459.79-241.7l-14.55-27.1c-91.96-175.4-180.48-352.5-275.67-525.3-.21 0-.21-.2-.21-.2 7.68 85.3 29.92 170.4 44.47 256.1 2.02 12.1 4.04 24.2 5.65 36.6 6.67 48.5 9.71 96.8 5.26 145.5-.61 6.6-1.41 13.1-2.42 19.8-2.63 20-6.67 39.8-12.54 59.6" style="fill:#ec1c26;fill-opacity:1;fill-rule:nonzero;stroke:none" transform="matrix(.13333 0 0 -.13333 -224.45 1759.219)"/><path d="M6523.65 9356.8c22.84 268.4 5.66 542.05-77.81 799.7 0-.2-.2-.2-.2-.4v1.1c0-.3 0-.3.2-.5.4 1.5.81 2.7 1.01 4.1v.2c29.1 114.8-11.73 233.4 11.52 347.8l53.56-67.1 113.58-6.4h.2c0-38.9-4.24-77.5-6.67-116.1-.81-13.3-1.21-26.8-1.21-40.2v-5.4c15.76-53.4 42.85-102.5 61.64-154.8 0-.3.2-.5.2-.7 53.76-150.33 82.67-308.38 85.29-468.04v-.81c2.43-116.82-3.64-233.23-17.58-349.24-89.13 17.79-177.65 38.6-265.77 60.64l41.84-5.46c0 .6 0 1.01.2 1.61" style="fill:#9fcee4;fill-opacity:1;fill-rule:nonzero;stroke:none" transform="matrix(.13333 0 0 -.13333 -224.45 1759.219)"/><path d="M7115.82 12018.1c-96.2 101.1-212.82 180.1-314.28 275.9l11.12 20.2.81 1c15.56 30.4 30.72 60.7 46.28 91 163.1-101.1 292.25-245.4 427.86-379.4 83.67-81.2 156.03-173.4 214.84-274.2-26.88-30.1-53.76-60.7-80.84-90.6-94.39 124.9-196.45 244-305.79 356.1" style="fill:#f9dc4e;fill-opacity:1;fill-rule:nonzero;stroke:none" transform="matrix(.13333 0 0 -.13333 -224.45 1759.219)"/><path d="M8009.53 8676.72c-17.18-239.3-46.68-476.82-74.98-715.02 0-.4-.2-1-.2-1.5-425.43 154.3-849.65 311.1-1275.7 463.48-.2 0-.6.2-.8.2l1.21 3.84c.2.61.4 1.02.4 1.62 10.31 31.73 20.42 63.46 30.12 95.19 3.63 11.73 7.27 23.45 10.91 35.16 25.47 82.26 48.91 165.13 67.91 248.8.4 1.01.61 2.22.81 3.24 395.72-42.05 790.84-87.11 1186.56-128.95l53.76-6.06" style="fill:#ec1c26;fill-opacity:1;fill-rule:nonzero;stroke:none" transform="matrix(.13333 0 0 -.13333 -224.45 1759.219)"/><path d="m3304.09 12423.2 1.62-3.3c-157.44-93.3-284.57-227.1-412.5-356.1-89.13-88.3-151.38-200.3-247.37-282.9-20.22 22.2-39.21 44.8-58.62 67.5l-15.76 18.4c186.94 258.9 409.26 493.3 672 672.8 20.21-39 40.42-77.6 60.63-116.4" style="fill:#fae15d;fill-opacity:1;fill-rule:nonzero;stroke:none" transform="matrix(.13333 0 0 -.13333 -224.45 1759.219)"/><path d="M3439.3 9189.05c21.83-123.48 44.87-246.97 75.59-368.44L3410 8808.49h-.81v-.2l-55.38-6.07h-.2l-1.01-.2h-1.01c15.36 10.52 30.72 21.22 45.88 32.34-29.71 128.34-63.47 256.88-71.75 388.85v.4l110.55-14.35c0-5.04 2.23-15.15 3.03-20.21M3557.54 10336c3.23-24 .81-47.5-4.85-70.3-2.23-9.7-5.26-19.2-8.49-28.5-13.14-37.6-32.34-74.2-47.09-111.4-1.62-3.6-3.04-7.5-4.45-11.1 0-.2-.2-.4-.2-.6l-97.62 68.7-.81.6-4.85 3.3c0 .2.2.4.2.6 22.24 46 54.57 92.9 45.07 146.9-22.83 189-40.42 380-18.79 569.9h.6c.21-.2.21-.2.41-.4 45.67-52.7 90.94-105.5 139.65-155.4l.2-.2v-.2h.2c-4.24-43.4-6.87-86.9-8.89-130.3v-.5c-2.01-43.6-2.01-82.4-1.41-123.6 0-44.9 3.23-89.8 6.67-134.6 0-.3.2-.5.2-.7 2.02-7.4 3.43-14.7 4.25-22.2" style="fill:#bb1e25;fill-opacity:1;fill-rule:nonzero;stroke:none" transform="matrix(.13333 0 0 -.13333 -224.45 1759.219)"/><path d="M3859.08 11360.9c-16.98 32.3-33.75 64.9-50.93 97 0 .2-.2.6-.2.8h-.2c-12.13 22.9-24.06 45.7-35.98 68.7-111.36 212-220.7 425.5-332.06 637.5l-.2.2v.2l-10.11 19.8s0 .2-.2.2l-.2.2h.2c19.6 9.7 38.4 20.4 56.79 31.7l.4.4c13.75 8.5 27.29 17.6 40.83 26.5 9.29 6.3 18.39 12.3 27.89 18.6 31.73 21 64.07 41.6 99.03 57.8 120.06 57.6 223.33 143.7 343.38 201.9 22.44 15 48.71 8.5 73.77 5.7v-.2h-.2c-26.48-20.5-51.74-42.7-75.19-66.3-5.86-6.1-11.72-12.2-17.38-18.2-17.18-18.4-33.34-37.8-48.5-58 0 0 0-.2-.2-.2-36.18-49.7-62.86-104.9-79.23-162.9.2-.2.2-.2 0-.4-3.84-12.8-6.87-25.7-9.5-38.8.2-.2.2-.2 0-.4-2.63-13-4.85-26.1-6.26-39.5v-.6c-.82-6.6-1.62-13.3-2.03-20-.6-6.6-1.01-13.3-1.21-20.2-1.21-30.1.2-60.2 4.45-90.3 13.14-139.7 50.73-275.5 87.31-410.3 16.17-62.6 43.65-121.9 80.84-174.8l-32.54-11.5c-19.2-7.9-38.2-16.4-56.79-25.5h-.2c-18.8-9.1-37.19-18.6-55.38-28.9 0-.2-.2-.2-.2-.2" style="fill:#171b22;fill-opacity:1;fill-rule:nonzero;stroke:none" transform="matrix(.13333 0 0 -.13333 -224.45 1759.219)"/><path d="M3900.71 7695.9c66.7-158.7 136.42-316.1 212.01-470.9 0-.2-.2-.2-.2-.4-17.79-31.8-35.17-63.7-52.75-95.6-5.66 9.5-11.32 19-16.98 28.7-5.66 9.9-11.31 19.8-16.77 29.7-10.71 19.6-21.22 39.4-31.53 59.2-5.06 10.1-10.31 20.2-15.36 30.5-34.96 70.2-66.9 141.9-98.02 214.1-17.79 41.2-35.17 82.4-52.75 123.6v.4c12.12 13.2 24.25 26.5 36.17 39.9 12.13 13.5 24.05 27.1 35.98 40.6l.2.2" style="fill:#bb1e25;fill-opacity:1;fill-rule:nonzero;stroke:none" transform="matrix(.13333 0 0 -.13333 -224.45 1759.219)"/><path d="M4544.22 11107h.2v-116.8h-.2c-93.78-21.2-185.74-50.7-274.26-88.1-.4-.2-.6-.2-1.01-.4l-.2-.2c-46.69-19.6-92.37-41.2-137.23-64.5-.21 0-.41-.2-.61-.2-42.85 87.3-88.72 173-133.79 258.9-.21.2-.21.4-.41.6 7.08 5.9 14.35 11.4 21.83 16.6 4.45 3.2 8.89 6.5 13.74 9.3 4.25 2.8 8.49 5.7 12.74 8.3 7.07 4.4 14.35 8.7 21.82 12.5 7.48 4.1 15.16 7.9 23.04 11.5 30.93 14.2 63.47 24.7 97.02 31.2 2.62.8 5.45 1.2 8.08 1.8 66.29 0 133.8-2.2 198.06-19.4 4.45-1.2 9.1-2.6 13.75-3.9 4.65-1.2 9.09-2.6 13.54-4.2h.2c10.51-3.8 21.02-7.9 31.53-11.9 21.02-8.7 41.43-17.8 61.84-27.1 10.11-4.5 20.21-9.1 30.32-14" style="fill:#171b22;fill-opacity:1;fill-rule:nonzero;stroke:none" transform="matrix(.13333 0 0 -.13333 -224.45 1759.219)"/><path d="M6143.28 11122.8c12.54-7.9 24.46-17 35.98-26.5 0-.2-.2-.2-.2-.4-46.49-85.7-91.35-172.4-136.43-258.7h-.2c-76.8 40.1-156.43 74.4-238.28 103.3h-.2c-.2.2-.2.2-.41.2-6.66 2.4-13.33 4.7-20.21 6.9-40.62 13.1-81.85 23.4-122.27 36.4-6.87 2.2-13.74 4.4-20.61 6.8-16.18 36.6-5.26 80.9-7.69 119.7.21 0 .21.2.41.2 10.1 4.6 20.41 9.3 30.72 13.7 10.11 4.3 20.21 8.3 30.52 12.6.2.2.4.2.6.2 20.82 8 41.84 15.7 63.06 22.8 3.44 1.2 6.87 2.2 10.11 3.2 10.71 3.5 21.62 6.9 32.53 9.9h.81c54.16 10.1 109.34 15.2 164.52 14.8h1.01c4.65-.6 9.09-1.2 13.54-2 4.85-.6 9.7-1.6 14.55-2.5 8.49-1.6 16.78-3.4 25.06-5.6 4.85-1.2 9.7-2.4 14.35-4.1 1.21-.2 2.22-.6 3.23-1 4.65-1.4 9.3-2.8 13.95-4.4 4.65-1.6 9.3-3.4 13.74-5.1 4.65-1.8 9.1-3.6 13.54-5.6 8.9-3.5 17.79-7.7 26.48-12.6 8.69-4.4 17.18-9.3 25.47-14.3 4.24-2.6 8.28-5.3 12.32-7.9m380.57 974.8c4.45-48.7 1.41-97-5.26-145.5-1.61-12.4-3.63-24.5-5.65-36.6-14.35-85.5-36.58-170.8-44.26-255.9-.21-.4-.21-1-.21-1.4-7.88-17-16.16-33.8-24.45-50.5-8.49-16.8-16.78-33.6-25.26-50.4-16.78-33.1-34.16-66-51.34-98.8 0-.2-.2-.2-.2-.4v-.2c-17.38-32.3-34.36-64.9-50.73-97.2-.2.2-.6.4-.81.4a936.224 936.224 0 0 1-110.35 54c-.2 0-.2.2-.4.2l-.81.2-33.75 12.3s0 .2.2.2c34.15 47.3 59.82 100 75.59 156.4 48.7 173 99.84 349.5 96.81 530.8-5.06 97-38.4 190.3-96.01 268.6-40.62 54.1-88.72 102.4-142.68 143.5h-.81c73.57 17.3 131.98-42.7 193.21-72.8 93.37-72.6 179.88-161.7 212.21-278.7 5.66-19.4 9.7-39 12.54-58.4 1.01-6.7 1.81-13.2 2.42-19.8m230.6-3282.64 15.16-1.62c0-.2 0-.4-.2-.61 0-.4 0-.6-.2-1-.2-1.02-.41-2.23-.81-3.24-19.6-83.67-43.05-166.54-67.91-248.8-3.64-11.71-7.28-23.43-10.91-35.16-9.7-31.73-19.81-63.46-30.12-95.19h-.4l-100.65 32.34v-.21c-.2 0-.2-.19-.2-.19v.4c4.44 14.75 9.1 29.5 13.54 44.25 6.87 22.85 13.54 45.48 20.21 68.31 6.67 22.64 13.14 45.28 19.6 68.12 12.94 45.47 25.27 91.14 36.99 136.62 3.84 14.96 7.68 30.12 11.32 45.27.2.21.2.4.2.61h.2l93.37-9.9h.81" style="fill:#bb1e25;fill-opacity:1;fill-rule:nonzero;stroke:none" transform="matrix(.13333 0 0 -.13333 -224.45 1759.219)"/><path d="m7587.13 11849.8-6.66-7.7c-26.28-29.7-52.15-60.6-78.22-89.5-58.82 100.8-131.17 193-214.84 274.2-135.62 134-264.76 277.7-427.86 379.4l13.94 27.7h.21c15.15 29.5 30.52 59 46.48 88.3 259.5-183.9 485.26-411.3 666.95-672.4" style="fill:#fbe777;fill-opacity:1;fill-rule:nonzero;stroke:none" transform="matrix(.13333 0 0 -.13333 -224.45 1759.219)"/><path d="m3230.93 12565 13.34-25.4c-263.55-179.5-485.87-413.9-671.19-671.8-14.76 17-29.51 33.9-43.86 50.9 184.93 267 414.52 500 678.87 689l22.84-42.7" style="fill:#fabd37;fill-opacity:1;fill-rule:nonzero;stroke:none" transform="matrix(.13333 0 0 -.13333 -224.45 1759.219)"/><path d="M3930.02 12384.6c0 .2 0 .4-.2.6v.2c15.16 20.2 31.52 39.6 48.7 58 5.66 6 11.52 12.1 17.38 18.2 23.45 23.6 48.71 45.8 75.19 66.3h.2v.2h.2c10.51 6.8 21.23 13.7 31.73 20.6 21.22 13.9 42.44 27.9 64.27 41 6.07 3.6 12.13 7.3 18.39 10.7 1.42.8 2.63 1.6 4.05 2.4 3.43 2.3 6.87 4.3 10.31 6.1l.2-.2c25.06 13.5 50.93 26.5 76.8 39.2 10.1-42.4 19.4-85.1 28.49-127.9 10.31-48.3 20.01-96.4 30.12-144.7 6.67-32.2 13.54-64.3 20.61-96.4 1.22-6.1 2.63-12.2 4.04-18.2 3.24-15 6.67-29.7 10.11-44.5 2.63-11.1 5.26-22.2 7.88-33.1 3.84-16.2 7.88-32.2 11.93-48.1v-.4c-117.23-48.7-231.62-110.2-322.97-199.9l-.4-.4-.21.2c-16.37 21.2-28.69 45.4-35.97 71.3-35.57 125.9-64.47 253.1-100.85 378.8m729.19-5753.4c39.82-210.6 53.77-428.5 14.36-640.1-38.81-185.7-93.98-367.8-164.92-543.8-.2-.6-.41-1.2-.61-1.9-.2-.4-.2-.8-.4-1.2-57.2-174-190.79-317.7-211.2-504-.81.2-1.82.4-2.63.6-70.33 15.5-139.86 33.1-208.98 52.5 33.75 174.6 158.45 308 228.38 467.1 90.34 189.8 159.67 388.6 207.16 593.4 30.52 131.1 32.74 267.4 6.27 399.5-67.91 319.2-226.77 608.4-346.01 909.5-178.87 428.7-318.72 872.5-418.36 1326.25-33.75 180.07-66.9 360.15-94.99 541.03v.41c16.37 11.52 33.15 22.84 50.12 33.95 1.21.81 2.43 1.62 3.64 2.43l-.2.4c78.01 12.94 155.82 26.88 233.03 44.87 1.01 0 2.01-.2 3.03-.2h.2c26.88-1.62 53.76-3.44 80.84-5.66 32.74-564.69 170.38-1117.08 343.58-1653.68.61-2.2 1.22-4.2 1.82-6.4.21-.2.21-.4.21-.6 97.01-334.9 204.32-667.6 274.86-1009.5.2-1.5.6-2.9.8-4.3v-.6m91.16 4316.8 38.2-15.4c-65.49-30.3-128.54-65.4-188.97-104.9-.41-.2-.61-.4-1.02-.8-15.15-9.9-29.91-20.4-44.26-31.1-14.34-10.5-28.29-21.4-42.03-32.7a1070.62 1070.62 0 0 1-78.62-72.4c-9.5-9.5-18.6-19.2-27.69-29.1-18.19-19.8-35.57-40.2-52.35-61.2-108.13-136.7-186.14-298.3-232.42-466.3-63.46-230.19-91.15-468.68-82.26-707.37-.4 0-.6-.2-1.01-.2-113.58-19-226.96-39-338.93-64.67l-46.48-4.65c-22.64 234.04-7.08 470.3 45.87 699.49 7.48 23.4 15.57 46.7 24.06 69.7 8.08 22.7 16.77 44.9 26.07 67.1 4.64 11.6 9.49 22.9 14.55 34 14.75 33.7 30.72 67.1 48.3 99.6 5.86 10.9 11.72 21.6 17.79 32.4 42.24 74.9 92.15 145.3 151.17 209.1l1.01 1.1c26.48 24.8 53.36 49.3 81.05 73.1 13.13 11.3 26.47 22.4 40.01 33.6 21.02 16.9 42.65 33.3 64.68 48.9 6.67 4.6 13.34 9.3 20.01 13.7 1.82 1.2 3.63 2.4 5.45 3.7 10.72 7.2 21.43 14.1 32.54 20.8 20.82 12.7 42.04 24.6 63.87 35.3.81.6 1.82 1.1 2.62 1.5l-.8-1.1c144.91 72.4 299.72 122.5 459.59 148.8m86.3 159.5c7.88-19.7 17.17-38.9 27.69-57.6h-.21c-41.43-6.3-82.25-12.6-123.08-20.3-24.45-4.8-48.71-9.9-72.76-15.1v.4c-5.66 104.5 4.04 209.2-3.64 313.5v24.2h-1.01c46.08 10.5 94.19 10.1 140.06-1.4 0-.4 0-.8-.2-1.2-.6-4.7-1.01-9.3-1.01-14-1.01-9.7-1.62-19.4-1.62-28.9-.81-20.8-.2-41.4 2.03-61.8 4.44-47.3 15.76-93.6 33.75-137.8m974.15 1016.5c-7.48 3.1-15.16 6.1-22.84 9.1v.2c5.05 21.3 9.91 42.5 14.76 63.9 9.49 42.5 18.79 85.1 27.48 127.7.21.2.21.4.21.4 9.09 42.7 17.98 85.5 26.67 128.2 0 0 .21.2.21.4 9.09 42.8 18.18 85.5 27.68 128.1 4.85 21.4 9.7 42.9 14.76 64.1h.2c26.88-13.5 53.76-27.1 80.44-41.4.2 0 .2-.2.4-.2 41.84-23.5 82.46-49.6 122.28-77 .2-.2.2-.2.4-.2 53.76-41.1 101.86-89.4 142.28-143.3-43.25-153-77.4-308.5-125.71-459.8-11.92 11.1-24.05 22-36.38 32.5l-.4.4c-12.33 10.7-25.06 20.8-37.79 30.7-71.75 55.6-150.58 101.5-234.65 136.2m661.29-2864.61 36.18-13.54c-15.56-179.67-54.97-356.52-87.92-533.57-.4-1.4-.6-3.03-1.01-4.44 0-.4-.2-.81-.2-1.21v-.21C6332.05 8298.2 6211.19 7898 6058.2 7509.8c-.41-.9-.61-1.9-1.02-2.7-28.69-74.8-59.21-148.5-90.74-222.1-7.88-18.4-15.76-36.8-23.85-55.2-23.84-54.9-48.1-109.9-71.95-165.1-24.05-55-47.49-110.1-70.33-165.7-7.48-18.4-14.96-37-22.43-55.6-9.91-24.6-19.41-49.5-28.9-74.4-4.86-12.5-9.5-25-14.15-37.8-3.03-8.2-6.06-16.5-8.9-24.8-10.3-28.5-20.21-57-29.5-85.9-.41-.8-.61-1.4-.81-2.2v-.2c-65.48-198.5-87.11-416-23.45-618.1.2-.8.41-1.8.61-2.6.2-.2.2-.4.2-.6 60.63-225 138.65-446.9 252.44-650.8.2-.4.4-.8.8-1.2 0-.2.2-.6.41-.8 66.69-111.4 144.7-219.9 166.94-350.9-1.02-.2-1.82-.6-2.83-.8-68.32-18.4-137.23-35-205.95-51.3-13.34 85.5-42.65 167.7-86.3 242.5-52.75 93-98.63 189.8-137.23 289.4-67.5 170.6-119.85 346.8-156.63 526.7-28.5 177.9-28.5 359 0 536.8 70.53 412.9 206.95 810.5 323.37 1212.6 40.42 124.5 76.8 250.3 108.73 377.2v-2.4c105.5 386.38 180.08 782.51 200.49 1183.09 0 1.01.2 2.02.2 3.02h96c75.8-18.18 152.8-31.12 229.19-46.89l8.69-3.43h.21l.4-.2h.2m-24.25 899.21c83.87-258.33 101.05-532.79 77.81-802l-2.02.2-39.82 5.26c-112.97 24.66-226.56 46.48-340.55 64.47-2.22 333.07-37.19 677.67-191.79 977.97-92.17 182.5-232.63 336.3-406.24 444.7-52.95 32.9-107.72 62.8-164.31 89.3-1.62.8-3.23 1.6-4.85 2.2 131.37 2.2 256.67-42.2 381.17-80.6.2 0 .41 0 .61-.2h.2c126.92-45.9 240.91-120.3 346.81-203.3.81-.5 1.42-1.1 2.23-1.7 155.62-130.7 261.72-308 339.74-493.9v-.2c.4-.8.61-1.4 1.01-2.2" style="fill:#fff;fill-opacity:1;fill-rule:nonzero;stroke:none" transform="matrix(.13333 0 0 -.13333 -224.45 1759.219)"/><path d="M7647.97 11917.7c-20.21-22.6-40.42-45.3-60.63-67.9-181.7 261.1-407.45 488.5-666.96 672.4l7.89 14.5h-.21c12.94 24.1 26.28 47.7 40.42 71.6 264.56-189.4 494.36-423 679.49-690.6" style="fill:#f9dc40;fill-opacity:1;fill-rule:nonzero;stroke:none" transform="matrix(.13333 0 0 -.13333 -224.45 1759.219)"/><path d="m2011.22 8656.91 2.42-2.63c-47.89-4.44-95.39-8.69-143.09-13.74l-33.75-4.24h-.4c17.18 259.29-4.25 519.81 8.89 779.72v1.41h.4c37.6-4.03 75.59-8.28 113.18-12.93v-1.41c-8.28-245.56-9.29-490.52 2.84-735.88l48.7-9.49.61-.81h.2m1132.6-2837.01c42.85-39.6 91.76-71.9 145.12-95.8-.21-.2-.21-.6-.41-.8-22.64-41.6-44.87-83.2-66.89-125.1l-3.85 4.5c-91.15 95-203.72 166.1-294.66 261.3-124.51 121.1-247.59 249-329.64 404.4-.2.2-.2.6-.41.8 28.1 30.1 55.99 60.5 84.08 90.6v-.6c.2-.2.2-.2.2-.4 16.78-100.5 108.93-156.9 164.92-233.9 86.3-115.4 204.53-199.5 301.54-305m3669.24 6495.3-.4-1-11.12-20.2-43.04-81.4c-147.34 91.3-291.24 194.4-460.4 241.9-.41.2-1.01.4-1.42.4-.2.2-.2.2-.4.2-60.63 30.1-119.65 90.1-193.21 72.8-40.22 27.4-80.65 53.5-122.28 77-.2 0-.2.2-.4.2 7.88 33.3 15.96 66.7 23.84 101l.2-1.2.21-.4h.41c35.77-10.9 71.54-22 107.31-33.8 35.78-11.7 71.35-24 106.71-36.7h.2c35.37-13 70.54-26.3 105.51-40.5 17.38-7 34.76-14.3 52.14-21.8 69.12-29.9 136.83-62.8 202.31-99.4 8.29-4.7 16.37-9.3 24.65-14 16.17-9.5 32.34-19 48.11-28.9h.2c11.92-7.4 23.85-15.1 35.57-22.8 11.72-7.7 23.44-15.8 35.17-23.7 15.36-10.7 30.51-21.6 45.67-32.9 7.48-5.9 14.96-11.5 22.64-17.2 7.27-5.8 14.55-11.7 21.82-17.6" style="fill:#f03f36;fill-opacity:1;fill-rule:nonzero;stroke:none" transform="matrix(.13333 0 0 -.13333 -224.45 1759.219)"/><path d="M4537.96 12186.3c-49.73-15.8-99.24-32.5-147.54-51.7-43.46 169.7-72.96 343.5-113.18 513.3 78.82 40 161.48 72.2 246.56 96.4 16.58-185.7-9.09-373.1 14.16-558" style="fill:#b9daea;fill-opacity:1;fill-rule:nonzero;stroke:none" transform="matrix(.13333 0 0 -.13333 -224.45 1759.219)"/><path d="M5899.75 12646.1c-40.43-170.4-71.96-343.6-111.77-513-46.48 18.6-93.57 35-141.47 50.2-1.02 175.8-26.68 352.6-2.63 527.5l30.32 26h.4c77.41-24 152.59-54.5 225.15-90.7" style="fill:#bbddeb;fill-opacity:1;fill-rule:nonzero;stroke:none" transform="matrix(.13333 0 0 -.13333 -224.45 1759.219)"/><path d="M4163.45 12760.1c11.52-50.5 23.85-101.1 36.99-151.4-44.67-24.5-86.3-53.4-128.95-80.8-25.06 2.8-51.53 9.3-73.97-5.7-119.44-58.6-222.31-144.7-343.58-202.1-79.83-37-146.12-96.6-225.15-135-16.37 30.9-32.74 62-48.71 93.2-24.25 47.2-48.3 94.7-73.36 141.4l-1.62 3.3c83.48 6.8 138.65 76 209.18 112.3l.61.2c205.75 101.1 412.5 217.3 641.89 253.9l6.67-29.3" style="fill:#2a2c35;fill-opacity:1;fill-rule:nonzero;stroke:none" transform="matrix(.13333 0 0 -.13333 -224.45 1759.219)"/><path d="M5643.68 12710.8c-24.05-174.9 1.61-351.7 2.62-527.5-361.97 104.5-745.77 105.5-1108.34 3-23.25 184.9 2.42 372.3-14.16 558 183.11 52.6 374.31 68.9 564.09 71.2 197.65-3.5 396.53-22.3 586.11-78.7l-30.32-26" style="fill:#cfe5ed;fill-opacity:1;fill-rule:nonzero;stroke:none" transform="matrix(.13333 0 0 -.13333 -224.45 1759.219)"/><path d="m6873.7 12433.9-13.95-27.7c-15.56-30.3-30.72-60.6-46.28-91-235.25 190-521.84 303.2-808.42 389.3 7.88 34 15.76 68.1 24.04 101.1l7.28 30.7-.41 1c117.84-58.4 247.99-85.9 366.22-143.3 166.94-67.7 325.19-155 471.52-260.1" style="fill:#f36350;fill-opacity:1;fill-rule:nonzero;stroke:none" transform="matrix(.13333 0 0 -.13333 -224.45 1759.219)"/><path d="M5086.88 12866.8c0-12.9 0-38.6 1.01-51.3-189.78-2.3-380.98-18.6-564.09-71.2-85.08-24.2-167.74-56.4-246.56-96.4-25.87-12.7-51.74-25.7-76.8-39.2-13.54 50.3-25.87 100.6-36.99 151.4 303.16 60.6 611.78 125.7 923.43 106.7" style="fill:#f9dd46;fill-opacity:1;fill-rule:nonzero;stroke:none" transform="matrix(.13333 0 0 -.13333 -224.45 1759.219)"/><path d="m6928.06 12536.7-7.88-14.5c-15.96-29.3-31.33-58.8-46.48-88.3a2271.581 2271.581 0 0 1-471.52 260.1c-118.23 57.4-248.38 84.9-366.22 143.3 8.09 35.1 16.18 70.1 24.66 105.3 121.27-32.8 238.08-78.8 357.13-118.9 178.66-79.4 349.64-175.4 510.31-287" style="fill:#f57d66;fill-opacity:1;fill-rule:nonzero;stroke:none" transform="matrix(.13333 0 0 -.13333 -224.45 1759.219)"/><path d="M4114.14 12968.9c13.94-60.7 27.69-119.7 41.83-179.5-229.39-36.6-436.14-152.2-641.89-253.9-70.53-36.3-125.71-105.5-209.18-112.3-20.21 38.8-41.43 77.4-60.63 116.4l-13.34 25.4c65.89 16.4 116.01 63.1 171.79 98.7 138.85 82.4 284.97 151.8 436.75 206.9 93.98 27.3 185.34 62.9 273.05 105.9l1.62-7.6" style="fill:#3e3e4b;fill-opacity:1;fill-rule:nonzero;stroke:none" transform="matrix(.13333 0 0 -.13333 -224.45 1759.219)"/><path d="M5533.53 12901.3c166.94-20.6 332.47-52.1 495.16-94.7-8.28-34-16.17-68.1-24.05-101.1-7.88-32.9-15.97-66.7-23.85-101-27.08 14.3-53.96 28.1-80.84 41.6-72.56 36.2-147.74 66.7-225.15 90.7-190.38 55.8-390.06 76-586.91 78.7 0 12.7 0 38.4-1.01 51.3v71.1c146.72-34.7 298.71-12.3 446.65-36.6" style="fill:#68c982;fill-opacity:1;fill-rule:nonzero;stroke:none" transform="matrix(.13333 0 0 -.13333 -224.45 1759.219)"/><path d="M6967.68 12608.3c-13.34-23.9-26.68-47.5-40.42-71.6-160.68 111.6-331.66 207.6-510.33 287-119.03 40.5-236.05 86.1-357.11 118.9l3.63 15.1c5.26 22.7 10.92 45.1 16.78 67.5h.81c317.3-87.1 617.23-227.9 886.64-416.9" style="fill:#f46a54;fill-opacity:1;fill-rule:nonzero;stroke:none" transform="matrix(.13333 0 0 -.13333 -224.45 1759.219)"/><path d="m4102.01 13026.9 10.51-50.4c-32.94-16.1-66.49-31.3-100.45-45.2-13.94-5.7-28.09-11.4-42.24-16.8-.61-.2-1.21-.6-1.82-.6-13.34-5.1-26.68-9.9-40.22-14.8-1.01-.4-2.02-.8-3.03-1-13.94-4.8-28.09-9.7-42.24-14.1-14.55-4.7-29.1-9.1-43.85-13.4-151.78-55.1-297.91-124.5-436.76-206.9-55.58-35.4-105.5-82.1-171.18-98.5-.2 0-.41-.2-.61-.2l-22.63 42.1v.2l-.2.4h.8c16.98 11.9 33.96 23.6 51.14 35.2a2860.328 2860.328 0 0 0 785.59 368c18.59 5.2 37.58 10.7 56.38 15.8.2 0 .61.2.81.2" style="fill:#252831;fill-opacity:1;fill-rule:nonzero;stroke:none" transform="matrix(.13333 0 0 -.13333 -224.45 1759.219)"/><path d="m6064.26 12957.1-3.64-15.1c-8.48-35.2-16.57-70.2-24.66-105.3l-7.27-30.7c-162.69 42.6-328.22 74.1-495.16 94.7-148.14 24.3-300.33 1.9-447.26 36.8v138.1h.4c329.84 6.4 658.87-33.6 977.59-118.5" style="fill:#7bd08f;fill-opacity:1;fill-rule:nonzero;stroke:none" transform="matrix(.13333 0 0 -.13333 -224.45 1759.219)"/><path d="M8301.98 10238.4c-20.21-4.2-40.42-9.1-60.63-14.6-.2 0-.2 0-.4-.2h-.41c-30.11-11.3-60.43-23.2-90.54-35.1-30.12-11.9-60.43-24.1-90.55-35.2-.2 0-.2-.2-.4-.2h-.2c-54.17-21-108.53-42.2-162.7-63.2-334.28-129.61-668.36-259.56-1002.24-389.51-13.34 101.86-25.87 204.93-50.32 304.81-.21 0-.21.2-.21.4-7.08 29.9-15.36 59.4-25.26 88.5-6.67 19.6-13.95 39.2-21.83 58.4-3.84 9.5-7.88 18.8-12.13 28.1 0 .2-.2.2-.2.4l-2.63 5.7s.2 0 .2.2c.21 0 .41.2.61.4 330.45 226.3 656.85 458.3 985.27 687.7h.2c.2.2.2.4.41.4 79.63 55.8 159.86 110.4 239.09 166.6h.2v.2h-.8c.2 0 .2.2.4.2 0 .2.2.2.2.2 22.43 15.7 45.07 31.3 68.11 46.7 0-.2.2-.4.2-.6 102.67-275.5 178.46-560.3 226.56-850.3" style="fill:#252831;fill-opacity:1;fill-rule:nonzero;stroke:none" transform="matrix(.13333 0 0 -.13333 -224.45 1759.219)"/><path d="M5086.88 13097.6v-231.4c-311.65 19-619.87-46.9-923.43-106.7l-6.67 29.3c-14.15 60.6-27.89 119.6-41.84 179.4 195.44 42.1 391.28 83.9 590.96 99.1v.6c126.12 21.4 256.27-1.8 380.98 29.7" style="fill:#fbe56d;fill-opacity:1;fill-rule:nonzero;stroke:none" transform="matrix(.13333 0 0 -.13333 -224.45 1759.219)"/><path d="M6081.04 13025.2c-5.87-22.4-11.52-44.8-16.78-67.5-318.72 84.7-647.75 124.3-977.59 117.9v22c0 13.5 0 40.4 1.01 54.4h.21c335.29 2.8 669.37-39.9 993.15-126.8" style="fill:#52c174;fill-opacity:1;fill-rule:nonzero;stroke:none" transform="matrix(.13333 0 0 -.13333 -224.45 1759.219)"/><path d="M5087.89 13152c0-13.6 0-40.5-1.01-54.4-124.71-31.5-254.86-8.3-380.98-29.7-199.68-15.2-395.52-57-590.96-99l-2.42 7.6-11.32 50.4h.81c321.35 86.5 653.01 128.5 985.88 125.1" style="fill:#f9dd4f;fill-opacity:1;fill-rule:nonzero;stroke:none" transform="matrix(.13333 0 0 -.13333 -224.45 1759.219)"/><path d="M8471.14 8817.98c-19-134.59-11.11-271.02-28.29-405.83v-.4c-1.01-9.09-2.22-18.19-3.64-27.08-18.79-197.07-46.28-394.87-84.48-590.77-113.58-588.3-321.14-1160.1-669.58-1650.4-346.61-499-857.94-889.3-1439.6-1068.9v.6c0 2.4 0 4.8.2 7.3.2 10.7.61 21.4 1.41 32.1-.2.6-.2 1.2 0 1.6.21 4.5.61 9.1.81 13.7l.21.3c44.87 16.3 89.73 33.1 134.4 50.7.2 0 .2.2.4.2 216.66 86.7 422 199.5 611.58 335.5 0 .2.2.2.2.2 15.96 11.5 31.93 23.2 47.49 35.1 47.3 35.8 93.38 73 138.04 111.6 44.67 38.8 88.12 78.8 130.16 120.3 42.24 41.4 82.86 84 122.07 128.1 78.42 88.1 151.18 181.3 217.87 278.9 0 0 0 .2.2.2 0 .2.21.2.21.4 172.39 251 313.26 522.1 419.16 807.6.21.2.41.6.41.8 99.23 269.4 175.83 546.9 228.38 829.3v.2c.2.2.2.6.2.8a6131.82 6131.82 0 0 1 95.6 803.36c15.36 264.56 13.34 530.13 3.23 794.89v1.01c-14.35 271.43-34.97 544.47-94.99 810.04-48.1 290.2-124.09 575.2-226.76 850.9-107.52 292.6-251.42 570.5-428.06 827.4 0 .2-.21.2-.21.4-46.28 66.7-95.19 131.4-146.93 193.8-155.01 188-334.28 355.3-533.15 497.6-202.11 141.3-421.19 255.7-652.2 340.6-76.8 28.3-155.22 53.5-234.44 75.1-323.78 86.9-657.86 129.6-993.15 126.8 0-13.6 0-40.5-1.01-54.4-124.71-31.5-254.86-8.3-380.98-29.7-199.68-15.2-395.52-57-590.96-99l-2.42 7.6-11.32 50.2c-302.35-80.5-586.71-210.6-841.97-383.8-17.18-11.6-34.16-23.3-51.14-35.2-.2-.2-.4-.2-.6-.4v-.2c-4.05-2.6-8.08-5.7-11.93-8.5-12.33-8.7-24.45-17.6-36.58-26.9-226.36-167.9-427.05-370.6-593.99-602.3-11.92-16.7-24.05-33.7-35.77-50.7-178.26-256.9-323.37-535.4-431.9-828.6-65.89-171-120.25-345.8-163.31-523.7-25.66-106.7-47.49-214.4-64.87-323-12.33-71.9-23.45-144.1-33.55-216.4-28.09-198.88-47.7-398.97-58.61-599.46-12.74-264.96-11.11-529.92 2.02-794.89v-.8a5644.189 5644.189 0 0 1 46.68-501.85c13.95-100.2 30.52-200.1 49.93-299.5 52.55-283.8 129.55-562.3 229.99-832.7a3699.26 3699.26 0 0 1 418.16-804c11.32-16.1 22.64-32.3 34.36-48.5 174.01-240.1 384-452.1 622.49-628.5 0 0 .2 0 .2-.2 36.38-26.5 73.37-52.4 110.95-77 163.1-107.5 337.32-197.1 519.82-267.4h.2c40.43-15.2 80.64-29.1 121.07-43.5v-.6c-2.83-14.3-5.06-28.9-6.87-43.4-82.26 3.4-154.62 46.5-229.8 74.4-309.43 134.8-601.67 318.1-839.75 558.8-537.81 509.3-850.06 1213.8-1006.69 1928.1-7.68 20-18.19 38.8-31.13 56v.2c-57.19 226.5-82.05 461.8-106.3 694.4-49.72 558.42-35.38 1120.68 43.04 1675.9 82.06 551.7 239.7 1097.2 510.73 1587.1 44.05 73.8 82.26 153.2 137.02 219.5 36.58 19.6 68.52 47.3 92.98 80.8 92.96 130.6 195.83 253.5 308 367.5 70.13 71.1 143.7 138.8 220.5 202.7 46.08 38.4 93.38 75.4 141.88 110.9 554.18 396 1246.39 568.6 1922.03 552 700.3 17.6 1421.21-168 1982.66-597.8 215.25-166.6 407.45-360.8 571.56-577.9 134.4-169.1 223.94-369.4 356.72-539.2l10.1-10.9v-9.1c-.6-19.8 1.22-39.6 5.46-59 1.22-5.7 2.83-11.3 4.45-17 0-.2.2-.4.2-.6 137.43-292.4 232.22-602.3 302.15-917.4 26.07-116.8 48.7-234.4 68.71-352 4.65-28.3 8.9-56.4 13.14-84.7 29.11-198.27 47.29-397.96 53.76-598.44 25.47-202.11 14.96-407.24 13.74-610.98" style="fill:#d7edf0;fill-opacity:1;fill-rule:nonzero;stroke:none" transform="matrix(.13333 0 0 -.13333 -224.45 1759.219)"/></g></svg>